<?xml version="1.0" encoding="UTF-8"?>
<svg width="160px" height="160px" viewBox="0 0 160 160" version="1.1" xmlns="http://www.w3.org/2000/svg" xmlns:xlink="http://www.w3.org/1999/xlink">
    <!-- Generator: Sketch 58 (84663) - https://sketch.com -->
    <title>视频备份 2</title>
    <desc>Created with Sketch.</desc>
    <g id="视频备份-2" stroke="none" stroke-width="1" fill="none" fill-rule="evenodd">
        <g id="折线图-copy-3" transform="translate(10.000000, 8.000000)">
            <path d="M125.844036,0.432318371 L129.726322,14.9212058 L10.0076785,46.9993184 L135,47 L135,142 L5,142 L4.99967845,48.3413184 L4.15596413,48.5676816 L0.273678453,34.0787942 L125.844036,0.432318371 Z M125,57 L15,57 L15,132 L125,132 L125,57 Z" id="形状结合" fill="#18AEB7" fill-rule="nonzero"></path>
            <path d="M40,112 L40,122 L25,122 L25,112 L40,112 Z M115,112 L115,122 L100,122 L100,112 L115,112 Z M60,77 L90,94.5 L60,112 L60,77 Z M40,92 L40,102 L25,102 L25,92 L40,92 Z M115,92 L115,102 L100,102 L100,92 L115,92 Z M40,72 L40,82 L25,82 L25,72 L40,72 Z M115,72 L115,82 L100,82 L100,72 L115,72 Z" id="形状结合" fill="#F6C444"></path>
        </g>
    </g>
</svg>