<?xml version="1.0" encoding="UTF-8"?>
<svg width="160px" height="160px" viewBox="0 0 160 160" version="1.1" xmlns="http://www.w3.org/2000/svg" xmlns:xlink="http://www.w3.org/1999/xlink">
    <!-- Generator: Sketch 58 (84663) - https://sketch.com -->
    <title>表单组件备份</title>
    <desc>Created with Sketch.</desc>
    <g id="表单组件备份" stroke="none" stroke-width="1" fill="none" fill-rule="evenodd">
        <path d="M30,10 L30,15 L130,15 L130,10 L150,10 L150,30 L145,30 L145,130 L150,130 L150,150 L130,150 L130,145 L30,145 L30,150 L10,150 L10,130 L15,130 L15,30 L10,30 L10,10 L30,10 Z M130,24.999 L30,24.999 L30,30 L24.999,30 L24.999,130 L30,130 L30,134.999 L130,134.999 L130,130 L134.999,130 L134.999,30 L130,30 L130,24.999 Z" id="形状结合" fill="#18AEB7" fill-rule="nonzero"></path>
        <path d="M129,99 L129,129 L99,129 L129,99 Z M47,37 L47,123 L37,123 L37,37 L47,37 Z" id="形状结合" fill="#F6C444"></path>
    </g>
</svg>