<?xml version="1.0" encoding="UTF-8"?>
<svg width="160px" height="160px" viewBox="0 0 160 160" version="1.1" xmlns="http://www.w3.org/2000/svg" xmlns:xlink="http://www.w3.org/1999/xlink">
    <!-- Generator: Sketch 58 (84663) - https://sketch.com -->
    <title>栅格组件备份</title>
    <desc>Created with Sketch.</desc>
    <g id="栅格组件备份" stroke="none" stroke-width="1" fill="none" fill-rule="evenodd">
        <g id="折线图备份" transform="translate(7.000000, 5.000000)">
            <path d="M52,0 L52,150 L47,150 L47,0 L52,0 Z M5,0 L5,150 L0,150 L0,0 L5,0 Z M99,0 L99,150 L94,150 L94,0 L99,0 Z M146,0 L146,150 L141,150 L141,0 L146,0 Z" id="形状结合" fill="#F6C444"></path>
            <path d="M42,0 L42,150 L10,150 L10,0 L42,0 Z M89,0 L89,150 L57,150 L57,0 L89,0 Z M136,0 L136,150 L104,150 L104,0 L136,0 Z" id="形状结合" fill="#18AEB7"></path>
        </g>
    </g>
</svg>