<?xml version="1.0" encoding="UTF-8"?>
<svg width="160px" height="160px" viewBox="0 0 160 160" version="1.1" xmlns="http://www.w3.org/2000/svg" xmlns:xlink="http://www.w3.org/1999/xlink">
    <!-- Generator: Sketch 64 (93537) - https://sketch.com -->
    <title>报表</title>
    <desc>Created with Sketch.</desc>
    <g id="报表" stroke="none" stroke-width="1" fill="none" fill-rule="evenodd">
        <path d="M8,152 L8,8 L152,8 L152,152 L8,152 Z M142,36 L18,36 L18,142 L142,142 L142,36 Z" id="形状" fill="#18AEB7" fill-rule="nonzero"></path>
        <path d="M132,123 L132,133 L28,133 L28,123 L132,123 Z M104,103 L104,113 L28,113 L28,103 L104,103 Z M132,44 L132,93 L28,93 L28,44 L132,44 Z M118,52 L89,52 L89,62 L100.905526,62 L87.912,74.943 L69.949293,57.0506993 L48.5355262,78.4644661 L55.606594,85.5355339 L69.963,71.178 L87.9125914,89.0570902 L107.999526,69.048 L108,81 L118,81 L118,52 Z" id="形状" fill="#F6C444" fill-rule="nonzero"></path>
    </g>
</svg>