<?xml version="1.0" encoding="UTF-8"?>
<svg width="160px" height="160px" viewBox="0 0 160 160" version="1.1" xmlns="http://www.w3.org/2000/svg" xmlns:xlink="http://www.w3.org/1999/xlink">
    <!-- Generator: Sketch 58 (84663) - https://sketch.com -->
    <title>正计时备份</title>
    <desc>Created with Sketch.</desc>
    <g id="正计时备份" stroke="none" stroke-width="1" fill="none" fill-rule="evenodd">
        <g id="编组-21备份" transform="translate(13.000000, 0.000000)" fill-rule="nonzero">
            <path d="M62,25 L62.0000137,35.2386703 C63.8122897,35.0806632 65.6467249,35 67.5,35 C69.0131833,35 70.5138069,35.0537748 72.0000639,35.1595176 L72,25 L62,25 Z M67.5,45 C38.5050506,45 15,68.5050506 15,97.5 C15,126.494949 38.5050506,150 67.5,150 C96.4949494,150 120,126.494949 120,97.5 C120,68.5050506 96.4949494,45 67.5,45 Z M87,10 L47,10 L47,15 L87,15 L87,10 Z M104.221705,46.92016 L112.606602,38.5355339 L133.819805,59.7487373 L123.617163,69.9524604 C127.704408,78.2628502 130,87.613343 130,97.5 C130,132.017797 102.017797,160 67.5,160 C32.9822031,160 5,132.017797 5,97.5 C5,87.736847 7.23859721,78.4965464 11.2305034,70.2643864 L11.1421356,70.3553391 L0.535533906,59.7487373 L21.7487373,38.5355339 L30.4064501,47.1926864 C36.7846598,42.4819452 44.0906256,38.9552166 51.9998111,36.9370372 L52,25 L37,25 L37,0 L97,0 L97,25 L82,25 L82.0004738,36.6907564 C90.1398033,38.6244203 97.6625678,42.149909 104.221705,46.92016 Z" id="形状结合" fill="#18AEB7"></path>
            <path d="M95.8388348,66.5900974 L102.909903,73.6611652 L81.2546112,95.3172822 C81.738342,96.7906846 82,98.3647856 82,100 C82,108.284271 75.2842712,115 67,115 C58.7157288,115 52,108.284271 52,100 C52,91.7157288 58.7157288,85 67,85 C69.9720047,85 72.7421325,85.8643378 75.0727237,87.3553538 L95.8388348,66.5900974 Z M67,95 C64.2385763,95 62,97.2385763 62,100 C62,102.761424 64.2385763,105 67,105 C69.7614237,105 72,102.761424 72,100 C72,97.2385763 69.7614237,95 67,95 Z" id="形状结合" fill="#F6C444"></path>
        </g>
    </g>
</svg>