<?xml version="1.0" encoding="UTF-8"?>
<svg width="160px" height="160px" viewBox="0 0 160 160" version="1.1" xmlns="http://www.w3.org/2000/svg" xmlns:xlink="http://www.w3.org/1999/xlink">
    <!-- Generator: Sketch 58 (84663) - https://sketch.com -->
    <title>倒计时备份</title>
    <desc>Created with Sketch.</desc>
    <g id="倒计时备份" stroke="none" stroke-width="1" fill="none" fill-rule="evenodd">
        <g id="编组-21" transform="translate(20.000000, 0.000000)">
            <path d="M0,160 L0,150 L15,150 L15,120 C15,102.58545 24.8920842,87.4813193 39.3637244,80.0001371 C24.8920842,72.5186807 15,57.4145504 15,40 L15,10 L0,10 L0,0 L120,0 L120,10 L105,10 L105,40 C105,57.4145504 95.1079158,72.5186807 80.6362756,79.9998629 C95.1079158,87.4813193 105,102.58545 105,120 L105,150 L120,150 L120,160 L15,160 L0,160 Z M60,85 C40.6700338,85 25,100.670034 25,120 L25,150 L95,150 L95,120 C95,100.670034 79.3299662,85 60,85 Z M95,10 L25,10 L25,40 C25,59.3299662 40.6700338,75 60,75 C79.3299662,75 95,59.3299662 95,40 L95,10 Z" id="形状结合" fill="#18AEB7"></path>
            <path d="M31,135.371203 C31.1016527,135.371203 31.2027112,135.386702 31.2996918,135.417166 C41.0259055,138.472389 50.6551748,140 60.1875,140 C69.7072871,140 79.2094939,138.476405 88.6941204,135.429214 C89.2199348,135.26028 89.7831385,135.549591 89.9520706,136.075406 C89.9838298,136.174259 90,136.277455 90,136.381284 L90,150 L30,150 L30,136.371226 C29.9999769,135.818929 30.4477025,135.371203 31,135.371203 Z M60,95 C62.7614237,95 65,97.2385763 65,100 L65,115 C65,117.761424 62.7614237,120 60,120 C57.2385763,120 55,117.761424 55,115 L55,100 C55,97.2385763 57.2385763,95 60,95 Z M85,30 L85,40 C85,53.8071187 73.8071187,65 60,65 C46.1928813,65 35,53.8071187 35,40 L35,30 L85,30 Z" id="形状结合" fill="#F6C444"></path>
        </g>
    </g>
</svg>