<?xml version="1.0" encoding="UTF-8"?>
<svg width="160px" height="160px" viewBox="0 0 160 160" version="1.1" xmlns="http://www.w3.org/2000/svg" xmlns:xlink="http://www.w3.org/1999/xlink">
    <!-- Generator: Sketch 58 (84663) - https://sketch.com -->
    <title>日期备份</title>
    <desc>Created with Sketch.</desc>
    <g id="日期备份" stroke="none" stroke-width="1" fill="none" fill-rule="evenodd">
        <g id="分组-2" transform="translate(5.000000, 5.000000)" fill-rule="nonzero">
            <path d="M29.999,15 L30,30 L55,30 L54.999,15 L95,15 L95,30 L120,30 L120,15 L150,15 L150,150 L0,150 L0,15 L29.999,15 Z M140,50 L10,50 L10,140 L140,140 L140,50 Z M50,0 L50,25 L35,25 L35,0 L50,0 Z M115,0 L115,25 L100,25 L100,0 L115,0 Z" id="形状" fill="#18AEB7"></path>
            <path d="M58.6284153,71 C62.7759563,71 66.2021858,72.2087912 68.9071038,74.6263736 C71.5519126,77.043956 72.8743169,80.1263736 72.8743169,83.9945055 C72.8743169,87.7417582 71.431694,91.1263736 68.6666667,94.2087912 C66.9836066,96.021978 63.9781421,98.3186813 59.7704918,101.159341 C55.3825137,104.06044 52.7377049,106.598901 51.7759563,108.774725 L72.9344262,108.774725 L72.9344262,115 L43,115 C43,110.587912 44.3825137,106.78022 47.2677596,103.516484 C48.8306011,101.703297 52.136612,99.043956 57.1256831,95.5989011 C59.8907104,93.6648352 61.8142077,92.032967 63.0163934,90.7637363 C64.8797814,88.6483516 65.8415301,86.3516484 65.8415301,83.9340659 C65.8415301,81.5769231 65.1803279,79.8241758 63.9781421,78.6758242 C62.715847,77.5274725 60.852459,76.9835165 58.3879781,76.9835165 C55.7431694,76.9835165 53.7595628,77.8901099 52.4371585,79.7032967 C51.1147541,81.3956044 50.3934426,83.9945055 50.273224,87.3791209 L43.2404372,87.3791209 C43.3005464,82.543956 44.6830601,78.6758242 47.4480874,75.7142857 C50.273224,72.5714286 54,71 58.6284153,71 Z M94.6939891,71 C98.8415301,71 102.26776,72.2087912 104.972678,74.6263736 C107.617486,77.043956 108.939891,80.1263736 108.939891,83.9945055 C108.939891,87.7417582 107.497268,91.1263736 104.73224,94.2087912 C103.04918,96.021978 100.043716,98.3186813 95.8360656,101.159341 C91.4480874,104.06044 88.8032787,106.598901 87.8415301,108.774725 L109,108.774725 L109,115 L79.0655738,115 C79.0655738,110.587912 80.4480874,106.78022 83.3333333,103.516484 C84.8961749,101.703297 88.2021858,99.043956 93.1912568,95.5989011 C95.9562842,93.6648352 97.8797814,92.032967 99.0819672,90.7637363 C100.945355,88.6483516 101.907104,86.3516484 101.907104,83.9340659 C101.907104,81.5769231 101.245902,79.8241758 100.043716,78.6758242 C98.7814208,77.5274725 96.9180328,76.9835165 94.4535519,76.9835165 C91.8087432,76.9835165 89.8251366,77.8901099 88.5027322,79.7032967 C87.1803279,81.3956044 86.4590164,83.9945055 86.3387978,87.3791209 L79.3060109,87.3791209 C79.3661202,82.543956 80.7486339,78.6758242 83.5136612,75.7142857 C86.3387978,72.5714286 90.0655738,71 94.6939891,71 Z" id="22" fill="#F6C444"></path>
        </g>
    </g>
</svg>