<?xml version="1.0" encoding="UTF-8"?>
<svg width="160px" height="160px" viewBox="0 0 160 160" version="1.1" xmlns="http://www.w3.org/2000/svg" xmlns:xlink="http://www.w3.org/1999/xlink">
    <!-- Generator: Sketch 58 (84663) - https://sketch.com -->
    <title>日期范围备份</title>
    <desc>Created with Sketch.</desc>
    <g id="日期范围备份" stroke="none" stroke-width="1" fill="none" fill-rule="evenodd">
        <g id="分组-2备份-6" transform="translate(5.000000, 5.000000)">
            <path d="M120,85 C139.329966,85 155,100.670034 155,120 C155,139.329966 139.329966,155 120,155 C100.670034,155 85,139.329966 85,120 C85,100.670034 100.670034,85 120,85 Z M29.999,15 L30,30 L55,30 L54.999,15 L94.999,15 L95,30 L120,30 L119.999,15 L150,15 L150,85 L140,85 L140,50 L10,50 L10,140 L85,140 L85,150 L0,150 L0,15 L29.999,15 Z M120,95 C106.192881,95 95,106.192881 95,120 C95,133.807119 106.192881,145 120,145 C133.807119,145 145,133.807119 145,120 C145,106.192881 133.807119,95 120,95 Z M58.490673,71 C62.6016593,71 65.9976914,72.2087912 68.6787694,74.6263736 C71.3002679,77.043956 72.6110172,80.1263736 72.6110172,83.9945055 C72.6110172,87.7417582 71.1811089,91.1263736 68.4404514,94.2087912 C66.7722251,96.021978 63.7932495,98.3186813 59.6226837,101.159341 C55.2733794,104.06044 52.6518809,106.598901 51.6986087,108.774725 L72.6705967,108.774725 L72.6705967,115 L43,115 C43,110.587912 44.3703288,106.78022 47.2301453,103.516484 C48.7792126,101.703297 52.0560857,99.043956 57.0011852,95.5989011 C59.7418427,93.6648352 61.6483871,92.032967 62.8399773,90.7637363 C64.6869422,88.6483516 65.6402143,86.3516484 65.6402143,83.9340659 C65.6402143,81.5769231 64.9848397,79.8241758 63.7932495,78.6758242 C62.5420797,77.5274725 60.6951149,76.9835165 58.2523549,76.9835165 C55.6308564,76.9835165 53.6647325,77.8901099 52.3539833,79.7032967 C51.043234,81.3956044 50.3282799,83.9945055 50.2091209,87.3791209 L43.238318,87.3791209 C43.2978976,82.543956 44.6682263,78.6758242 47.4088838,75.7142857 C50.2091209,72.5714286 53.9030506,71 58.490673,71 Z M94.2383798,71 C98.3493661,71 101.745398,72.2087912 104.426476,74.6263736 C106.256367,76.3139243 107.447596,78.3254154 108.000164,80.7019597 C105.699943,81.203358 103.470841,81.8950305 101.32806,82.7596461 C101.143747,80.9855523 100.525313,79.6244625 99.5409563,78.6758242 C98.2897866,77.5274725 96.4428218,76.9835165 94.0000618,76.9835165 C91.3785633,76.9835165 89.4124394,77.8901099 88.1016902,79.7032967 C86.7909409,81.3956044 86.0759868,83.9945055 85.9568277,87.3791209 L78.9860249,87.3791209 C79.0456044,82.543956 80.4159332,78.6758242 83.1565907,75.7142857 C85.9568277,72.5714286 89.6507575,71 94.2383798,71 Z M50,0 L50,25 L35,25 L35,0 L50,0 Z M115,0 L115,25 L100,25 L100,0 L115,0 Z" id="形状结合" fill="#18AEB7"></path>
            <polygon id="路径" fill="#F6C444" points="125 100 125 115 140 115 140 125 115 125 115 100"></polygon>
        </g>
    </g>
</svg>