<?xml version="1.0" encoding="UTF-8"?>
<svg width="160px" height="160px" viewBox="0 0 160 160" version="1.1" xmlns="http://www.w3.org/2000/svg" xmlns:xlink="http://www.w3.org/1999/xlink">
    <!-- Generator: Sketch 58 (84663) - https://sketch.com -->
    <title>月份备份</title>
    <desc>Created with Sketch.</desc>
    <g id="月份备份" stroke="none" stroke-width="1" fill="none" fill-rule="evenodd">
        <g id="分组-2备份-2" transform="translate(5.000000, 5.000000)">
            <path d="M30,15 L30,30 L55,30 L55,15 L95,15 L95,30 L120,30 L120,15 L150,15 L150,150 L0,150 L0,15 L30,15 Z M140,50 L10,50 L10,140 L140,140 L140,50 Z M50,0 L50,25 L35,25 L35,0 L50,0 Z M115,0 L115,25 L100,25 L100,0 L115,0 Z" id="形状" fill="#18AEB7" fill-rule="nonzero"></path>
            <path d="M30,120 L30,130 L20,130 L20,120 L30,120 Z M50,120 L50,130 L40,130 L40,120 L50,120 Z M70,120 L70,130 L60,130 L60,120 L70,120 Z M90,120 L90,130 L80,130 L80,120 L90,120 Z M110,120 L110,130 L100,130 L100,120 L110,120 Z M130,120 L130,130 L120,130 L120,120 L130,120 Z M30,100 L30,110 L20,110 L20,100 L30,100 Z M50,100 L50,110 L40,110 L40,100 L50,100 Z M70,100 L70,110 L60,110 L60,100 L70,100 Z M90,100 L90,110 L80,110 L80,100 L90,100 Z M110,100 L110,110 L100,110 L100,100 L110,100 Z M130,100 L130,110 L120,110 L120,100 L130,100 Z M30,80 L30,90 L20,90 L20,80 L30,80 Z M50,80 L50,90 L40,90 L40,80 L50,80 Z M70,80 L70,90 L60,90 L60,80 L70,80 Z M90,80 L90,90 L80,90 L80,80 L90,80 Z M110,80 L110,90 L100,90 L100,80 L110,80 Z M130,80 L130,90 L120,90 L120,80 L130,80 Z M30,60 L30,70 L20,70 L20,60 L30,60 Z M50,60 L50,70 L40,70 L40,60 L50,60 Z M70,60 L70,70 L60,70 L60,60 L70,60 Z M90,60 L90,70 L80,70 L80,60 L90,60 Z M110,60 L110,70 L100,70 L100,60 L110,60 Z M130,60 L130,70 L120,70 L120,60 L130,60 Z" id="形状" fill="#F6C444"></path>
        </g>
    </g>
</svg>