<?xml version="1.0" encoding="UTF-8"?>
<svg width="160px" height="160px" viewBox="0 0 160 160" version="1.1" xmlns="http://www.w3.org/2000/svg" xmlns:xlink="http://www.w3.org/1999/xlink">
    <!-- Generator: Sketch 58 (84663) - https://sketch.com -->
    <title>月份范围备份</title>
    <desc>Created with Sketch.</desc>
    <g id="月份范围备份" stroke="none" stroke-width="1" fill="none" fill-rule="evenodd">
        <g id="分组-2备份-5" transform="translate(5.000000, 5.000000)">
            <path d="M120,85 C139.329966,85 155,100.670034 155,120 C155,139.329966 139.329966,155 120,155 C100.670034,155 85,139.329966 85,120 C85,100.670034 100.670034,85 120,85 Z M30,15 L30,30 L55,30 L55,15 L95,15 L95,30 L120,30 L120,15 L150,15 L150,85 L140,85 L140,50 L10,50 L10,140 L85,140 L85,150 L0,150 L0,15 L30,15 Z M120,95 C106.192881,95 95,106.192881 95,120 C95,133.807119 106.192881,145 120,145 C133.807119,145 145,133.807119 145,120 C145,106.192881 133.807119,95 120,95 Z M30,120 L30,130 L20,130 L20,120 L30,120 Z M50,120 L50,130 L40,130 L40,120 L50,120 Z M70,120 L70,130 L60,130 L60,120 L70,120 Z M30,100 L30,110 L20,110 L20,100 L30,100 Z M50,100 L50,110 L40,110 L40,100 L50,100 Z M70,100 L70,110 L60,110 L60,100 L70,100 Z M30,80 L30,90 L20,90 L20,80 L30,80 Z M50,80 L50,90 L40,90 L40,80 L50,80 Z M70,80 L70,90 L60,90 L60,80 L70,80 Z M90,80 L90,90 L80,90 L80,80 L90,80 Z M30,60 L30,70 L20,70 L20,60 L30,60 Z M50,60 L50,70 L40,70 L40,60 L50,60 Z M70,60 L70,70 L60,70 L60,60 L70,60 Z M90,60 L90,70 L80,70 L80,60 L90,60 Z M110,60 L110,70 L100,70 L100,60 L110,60 Z M130,60 L130,70 L120,70 L120,60 L130,60 Z M50,0 L50,25 L35,25 L35,0 L50,0 Z M115,0 L115,25 L100,25 L100,0 L115,0 Z" id="形状" fill="#18AEB7"></path>
            <polygon id="路径" fill="#F6C444" points="125 100 125 115 140 115 140 125 115 125 115 100"></polygon>
        </g>
    </g>
</svg>