<?xml version="1.0" encoding="UTF-8"?>
<svg width="160px" height="160px" viewBox="0 0 160 160" version="1.1" xmlns="http://www.w3.org/2000/svg" xmlns:xlink="http://www.w3.org/1999/xlink">
    <!-- Generator: Sketch 58 (84663) - https://sketch.com -->
    <title>时间范围备份</title>
    <desc>Created with Sketch.</desc>
    <g id="时间范围备份" stroke="none" stroke-width="1" fill="none" fill-rule="evenodd">
        <g id="编组-18备份" transform="translate(10.000000, 10.000000)">
            <path d="M115,80 C134.329966,80 150,95.6700338 150,115 C150,134.329966 134.329966,150 115,150 C95.6700338,150 80,134.329966 80,115 C80,95.6700338 95.6700338,80 115,80 Z M70,0 C108.659932,0 140,31.3400675 140,70 C140,71.681147 139.940736,73.3484522 139.824184,74.9999405 L130,75 L115,75 L115,65 L129.794626,64.9999397 C128.737788,52.1896784 123.656683,40.5204985 115.818402,31.2594913 L105.384615,41.6923077 L98.3076923,34.6153846 L108.741233,24.1822108 C99.4803509,16.343786 87.8112636,11.2625041 75.0010617,10.2054565 L75,25 L65,25 L64.9999397,10.2053739 C52.1890965,11.2622598 40.5194384,16.3437786 31.2582293,24.1826662 L41.6923077,34.6153846 L34.6153846,41.6923077 L24.1826662,31.2582293 C16.3437786,40.5194384 11.2622598,52.1890965 10.2053739,64.9999397 L25,65 L25,75 L10.2054565,75.0010617 C11.2625041,87.8112636 16.343786,99.4803509 24.1822108,108.741233 L34.6153846,98.3076923 L41.6923077,105.384615 L31.2584974,115.817561 C40.5196636,123.65632 52.1892201,128.73775 64.9999397,129.794626 L65,115 L75,115 L75.0000603,129.794626 L74.9999405,139.824184 C73.3484522,139.940736 71.681147,140 70,140 C31.3400675,140 0,108.659932 0,70 C0,31.3400675 31.3400675,0 70,0 Z M115,90 C101.192881,90 90,101.192881 90,115 C90,128.807119 101.192881,140 115,140 C128.807119,140 140,128.807119 140,115 C140,101.192881 128.807119,90 115,90 Z M70.112,129.999 L69.8898999,129.999901 C69.9265922,129.999967 69.9632923,130 70,130 L70.112,129.999 Z M75,40 L75,65 L105,65 L105,75 L65,75 L65,40 L75,40 Z M129.999,69.89 L129.999897,70.1122284 C129.999966,70.074827 130,70.0374175 130,70 L129.999,69.89 Z" id="形状结合" fill="#18AEB7" fill-rule="nonzero"></path>
            <polygon id="路径" fill="#F6C444" points="120 95 120 110 135 110 135 120 110 120 110 95"></polygon>
        </g>
    </g>
</svg>