<?xml version="1.0" encoding="UTF-8"?>
<svg width="160px" height="160px" viewBox="0 0 160 160" version="1.1" xmlns="http://www.w3.org/2000/svg" xmlns:xlink="http://www.w3.org/1999/xlink">
    <!-- Generator: Sketch 58 (84663) - https://sketch.com -->
    <title>时间备份</title>
    <desc>Created with Sketch.</desc>
    <g id="时间备份" stroke="none" stroke-width="1" fill="none" fill-rule="evenodd">
        <g id="编组-18" transform="translate(10.000000, 10.000000)">
            <path d="M70,0 C108.659932,0 140,31.3400675 140,70 C140,108.659932 108.659932,140 70,140 C31.3400675,140 0,108.659932 0,70 C0,31.3400675 31.3400675,0 70,0 Z M75.0010617,10.2053739 L75,25 L65,25 L64.9999397,10.2053739 C52.1890965,11.2622598 40.5194384,16.3437786 31.2582293,24.1826662 L41.6923077,34.6153846 L34.6153846,41.6923077 L24.1826662,31.2582293 C16.3437786,40.5194384 11.2622598,52.1890965 10.2053739,64.9999397 L25,65 L25,75 L10.2053739,75.0010617 C11.2625041,87.8112636 16.343786,99.4803509 24.1822108,108.741233 L34.6153846,98.3076923 L41.6923077,105.384615 L31.2584974,115.817561 C40.5196636,123.65632 52.1892201,128.73775 64.9999397,129.794626 L65,115 L75,115 L75.0010617,129.794626 C87.811093,128.73751 99.4800403,123.656349 108.740863,115.818102 L98.3076923,105.384615 L105.384615,98.3076923 L115.818102,108.740863 C123.656349,99.4800403 128.73751,87.811093 129.794626,75.0010617 L115,75 L115,65 L129.794626,64.9999397 C128.737788,52.1896784 123.656683,40.5204985 115.818402,31.2594913 L105.384615,41.6923077 L98.3076923,34.6153846 L108.741233,24.1822108 C99.4803509,16.343786 87.8112636,11.2625041 75.0010617,10.2053739 Z" id="形状" fill="#18AEB7" fill-rule="nonzero"></path>
            <polygon id="路径" fill="#F6C444" points="75 40 75 65 105 65 105 75 65 75 65 40"></polygon>
        </g>
    </g>
</svg>