<?xml version="1.0" encoding="UTF-8"?>
<svg width="108px" height="108px" viewBox="0 0 108 108" version="1.1" xmlns="http://www.w3.org/2000/svg" xmlns:xlink="http://www.w3.org/1999/xlink">
    <!-- Generator: Sketch 52.5 (67469) - http://www.bohemiancoding.com/sketch -->
    <title>新建</title>
    <desc>Created with Sketch.</desc>
    <g id="新建" stroke="none" stroke-width="1"  fill-rule="evenodd">
    <!-- fill="#fff" -->
        <path d="M16,34 L92,34 L92,29 C92,18.514267 83.43708,10 72.8571429,10 L16,10 L16,34 Z M16,40 L16,79 C16,89.485733 24.56292,98 35.1428571,98 L56,98 L56,104 L35.1428571,104 C21.2568406,104 10,92.8071187 10,79 L10,4 L72.8571429,4 C86.7431594,4 98,15.1928813 98,29 L98,62.1005859 L92,62.1005859 L92,40 L16,40 Z M32,16 L38,16 L38,28 L32,28 L32,16 Z M49,16 L55,16 L55,28 L49,28 L49,16 Z M66,16 L72,16 L72,28 L66,28 L66,16 Z M74,80 L74,65 C74,63.3431458 75.3431458,62 77,62 C78.6568542,62 80,63.3431458 80,65 L80,80 L95,80 C96.6568542,80 98,81.3431458 98,83 C98,84.6568542 96.6568542,86 95,86 L80,86 L80,101 C80,102.656854 78.6568542,104 77,104 C75.3431458,104 74,102.656854 74,101 L74,86 L59,86 C57.3431458,86 56,84.6568542 56,83 C56,81.3431458 57.3431458,80 59,80 L74,80 Z" id="形状"  fill-rule="nonzero"></path>
    </g>
</svg>