<?xml version="1.0" encoding="UTF-8"?>
<svg width="120px" height="120px" viewBox="0 0 120 120" version="1.1" xmlns="http://www.w3.org/2000/svg" xmlns:xlink="http://www.w3.org/1999/xlink">
    <!-- Generator: Sketch 64 (93537) - https://sketch.com -->
    <title>编辑权限</title>
    <desc>Created with Sketch.</desc>
    <g id="编辑权限" stroke="none" stroke-width="1" fill="none" fill-rule="evenodd">
        <g id="编组-17" transform="translate(15.000000, 0.000000)" fill="#F65D4F" fill-rule="nonzero">
            <path d="M45,0 C61.4028571,0 74.7310571,13.1641715 74.9959809,29.5038951 L75,30 L75,45 L90,45 L90,85 C90,104.329966 74.3299662,120 55,120 L35,120 C15.6700338,120 0,104.329966 0,85 L0,45 L15,45 L15,30 C15,13.5971429 28.1641715,0.268942859 44.5038951,0.00401914288 L45,0 Z M45,65 C39.4771525,65 35,69.4771525 35,75 C35,79.4776856 37.9429507,83.2680083 42.0001192,84.5422352 L42,97 C42,98.6568542 43.3431458,100 45,100 C46.5976809,100 47.9036609,98.75108 47.9949073,97.1762728 L48,97 L48.0008825,84.5419205 C52.0575337,83.2673844 55,79.4773171 55,75 C55,69.4771525 50.5228475,65 45,65 Z M45,10 C34.0693643,10 25.186775,18.7687286 25.0029071,29.6555106 L25,30 L25,45 L65,45 L65,30 C65,19.1856477 56.4168477,10.375998 45.6912128,10.0117206 L45.3444894,10.0029071 L45,10 Z" id="形状"></path>
        </g>
    </g>
</svg>