<?xml version="1.0" encoding="UTF-8"?>
<svg width="120px" height="120px" viewBox="0 0 120 120" version="1.1" xmlns="http://www.w3.org/2000/svg" xmlns:xlink="http://www.w3.org/1999/xlink">
    <!-- Generator: Sketch 64 (93537) - https://sketch.com -->
    <title>绑定权限</title>
    <desc>Created with Sketch.</desc>
    <defs>
        <linearGradient x1="50%" y1="0%" x2="50%" y2="100%" id="linearGradient-6">
            <stop stop-color="#1489C9" offset="0%"></stop>
            <stop stop-color="#29589C" offset="100%"></stop>
        </linearGradient>
    </defs>
    <g id="绑定权限" stroke="none" stroke-width="1" fill="none" fill-rule="evenodd">
        <path d="M60,0 C78.2253967,0 93,14.7746033 93,33 C93,42.1151084 89.3043952,50.367062 83.3297853,56.3392613 C67.87022,58.5990741 56,71.9133178 56,88 C56,105.673112 70.326888,120 88,120 L0,120 L0.00803828576,119.00779 C0.450463812,91.7202717 19.1092156,68.8609602 44.353657,62.0604925 C34.0214513,56.4883179 27,45.5641329 27,33 C27,14.7746033 41.7746033,0 60,0 Z M117.063391,101.409436 C118.87253,106.963367 119.892507,112.873694 119.991962,119.00779 L120,120 L88,120 C100.884877,120 111.991108,112.384712 117.063391,101.409436 Z M88,62 C102.359403,62 114,73.6405965 114,88 C114,102.359403 102.359403,114 88,114 C73.6405965,114 62,102.359403 62,88 C62,73.6405965 73.6405965,62 88,62 Z M78.9978121,80.7240544 L78.7746351,80.9355358 L72.1496844,87.4034281 L71.9345731,87.6197381 C67.9234143,91.7745956 68.2397759,98.4632613 72.5511966,102.672471 C76.9001662,106.918339 83.7914094,107.15862 87.9849826,103.064464 C89.1705241,101.907029 89.1933083,100.00767 88.0358726,98.8221288 C86.9247343,97.684009 85.1298402,97.6174862 83.9391352,98.6380105 L83.6267401,98.9253016 C81.8084365,100.513892 78.7613114,100.350058 76.7426421,98.3792453 C74.7609087,96.444493 74.5984253,93.5857946 76.1870666,91.8555001 L76.3411299,91.6966535 L82.9660806,85.2287612 L83.1328776,85.0746984 C84.8943592,83.535751 87.809061,83.6414138 89.8247812,85.4412832 L90.1625737,85.753983 C91.3532787,86.7745072 93.1481728,86.7079845 94.2593111,85.5698647 C95.4167468,84.3843232 95.3939626,82.484965 94.2084211,81.3275292 C90.012047,77.230639 83.4486744,76.8631733 79.2258012,80.5205668 L78.9978121,80.7240544 Z M89.4635911,72.7240544 L89.1969046,72.9780138 L89.060222,73.1203742 C88.0114287,74.2862561 88.0348763,76.0822295 89.1460146,77.2203493 C90.2571529,78.3584691 92.052047,78.4249918 93.242752,77.4044676 L93.3883501,77.2712393 L93.4318596,77.2287612 L93.5986566,77.0746984 C95.4169603,75.4861075 98.4640853,75.6499422 100.482755,77.6207547 C102.464488,79.555507 102.626971,82.4142054 101.03833,84.1444999 L100.884267,84.3033465 L94.2593161,90.7712388 L94.0925191,90.9253016 C92.3310375,92.464249 89.4163357,92.3585862 87.4006155,90.5587168 L87.062823,90.246017 C85.8721181,89.2254928 84.0772239,89.2920155 82.9660857,90.4301353 C81.8086499,91.6156768 81.8314342,93.515035 83.0169756,94.6724708 C87.2896475,98.84385 94.0161729,99.1489562 98.2275846,95.2759456 L98.4507616,95.0644642 L105.075712,88.5965719 L105.290824,88.3802619 C109.301982,84.2254044 108.985621,77.5367387 104.6742,73.3275292 C100.401528,69.15615 93.6750029,68.8510438 89.4635911,72.7240544 Z" id="形状" fill="url(#linearGradient-6)"></path>
    </g>
</svg>