<?xml version="1.0" encoding="UTF-8"?>
<svg width="100px" height="100px" viewBox="0 0 100 100" version="1.1" xmlns="http://www.w3.org/2000/svg" xmlns:xlink="http://www.w3.org/1999/xlink">
    <!-- Generator: Sketch 52.5 (67469) - http://www.bohemiancoding.com/sketch -->
    <title>编辑</title>
    <desc>Created with Sketch.</desc>
    <g id="编辑" stroke="none" stroke-width="1" fill="none" fill-rule="evenodd">
        <g id="分组" transform="translate(2.000000, 5.000000)">
            <path d="M83,43 L90,43 L90,88 C90,90.7614237 87.7614237,93 85,93 L5,93 C2.23857625,93 4.4408921e-16,90.7614237 0,88 L0,8 C-4.4408921e-16,5.23857625 2.23857625,3 5,3 L50,3 L50,10 L7,10 L7,86 L83,86 L83,43 Z" id="路径" fill="#1BAFA6" fill-rule="nonzero"></path>
            <path d="M58.6463578,18.0406678 L75.1270268,34.5213368 L35.7122522,74.6999263 C35.5241683,74.8918498 35.2667565,75 34.9980371,75 L18,75 L18,59.1231373 C18,58.8580197 18.1052785,58.6037523 18.2926914,58.4162324 L58.6463578,18.0406678 Z M81.5024373,2.24462482 L90.7578221,11.5000096 C92.6965075,13.438695 92.7123622,16.5770003 90.7933637,18.5351748 L82.1266467,27.3788211 L65.7154075,10.9675819 L74.4313695,2.2446251 C76.3834336,0.291446452 79.5492584,0.290542935 81.502437,2.24260704 C81.5027735,2.24294329 81.5031099,2.24327959 81.5034462,2.24361593 Z" id="形状" fill="#F5A623"></path>
        </g>
    </g>
</svg>