<?xml version="1.0" encoding="UTF-8"?>
<svg width="120px" height="120px" viewBox="0 0 120 120" version="1.1" xmlns="http://www.w3.org/2000/svg" xmlns:xlink="http://www.w3.org/1999/xlink">
    <!-- Generator: Sketch 64 (93537) - https://sketch.com -->
    <title>扩展JS</title>
    <desc>Created with Sketch.</desc>
    <defs>
        <linearGradient x1="50%" y1="0%" x2="50%" y2="100%" id="linearGradient-3">
            <stop stop-color="#F4C36E" offset="0%"></stop>
            <stop stop-color="#EE9E3C" offset="100%"></stop>
        </linearGradient>
    </defs>
    <g id="扩展JS" stroke="none" stroke-width="1" fill="none" fill-rule="evenodd">
        <rect id="矩形" fill="url(#linearGradient-3)" x="10" y="0" width="100" height="120" rx="10"></rect>
        <path d="M36.6668172,30 L43.3334269,30 L43.3334269,36.6666233 L36.6668172,36.6666233 L36.6668172,53.3334744 C36.6668172,57.01542 33.6818526,60 29.9998169,60 C33.6818526,60 36.6668172,62.9850683 36.6668172,66.6666233 L36.6668172,83.3334744 L43.3334269,83.3334744 L43.3334269,90 L36.6668172,90 C33.1001136,89.1001924 29.9998169,87.0001855 29.9998169,83.3334744 L29.9998169,70.0003255 C29.9998169,68.2321557 29.2975699,66.5361541 28.0474708,65.2860524 C26.7970786,64.0359506 25.1013734,63.3333116 23.3333049,63.3333116 L20,63.3333116 L20,56.6666884 L23.3333049,56.6666884 C27.0152429,56.6666884 29.9998169,53.6821083 29.9998169,50.0001628 L29.9998169,36.6666233 C29.9998169,32.98458 32.9848791,30 36.6668172,30 L36.6668172,30 Z M83.3335734,30 C85.1017396,30 86.7973472,30.7022484 88.0474463,31.9527407 C89.2978385,33.2028425 90.0001831,34.8984534 90.0001831,36.6666233 L90.0001831,50.0001628 C90.0001831,51.7682349 90.7024301,53.4639436 91.9525292,54.7139476 C93.203019,55.96444 94.8986266,56.6666884 96.6666951,56.6666884 L100,56.6666884 L100,63.3333116 L96.6666951,63.3333116 C94.8986266,63.3333116 93.203019,64.0359506 91.9525292,65.2860524 C90.7024301,66.5361541 90.0001831,68.2321557 90.0001831,70.0003255 L90.0001831,83.3334744 C90.0001831,85.1015466 89.2978385,86.7972552 88.0474463,88.0476499 C86.7973472,89.2977516 85.1017396,90 83.3335734,90 L76.6666707,90 L76.6666707,83.3334744 L83.3335734,83.3334744 L83.3335734,66.6666233 C83.3335734,64.8984534 84.035918,63.2028425 85.2859195,61.9527407 C86.5364093,60.702346 88.2320169,60 90.0001831,60 C88.2320169,60 86.5364093,59.2977516 85.2859195,58.0476499 C84.035918,56.7971575 83.3335734,55.1015466 83.3335734,53.3334744 L83.3335734,36.6666233 L76.6666707,36.6666233 L76.6666707,30 L83.3335734,30 L83.3335734,30 Z M60.0002441,70.0003255 C61.8411644,70.0003255 63.3334513,71.4926155 63.3334513,73.3335395 C63.3334513,75.1745611 61.8411644,76.6668511 60.0002441,76.6668511 C58.1592263,76.6668511 56.6665487,75.1745611 56.6665487,73.3335395 C56.6665487,71.4926155 58.1592263,70.0003255 60.0002441,70.0003255 L60.0002441,70.0003255 Z M46.6666341,70.0003255 C48.507652,70.0003255 49.999939,71.4926155 49.999939,73.3335395 C49.999939,75.1745611 48.507652,76.6668511 46.6666341,76.6668511 C44.8257139,76.6668511 43.3334269,75.1745611 43.3334269,73.3335395 C43.3334269,71.4926155 44.8257139,70.0003255 46.6666341,70.0003255 L46.6666341,70.0003255 Z M73.3333659,70.0003255 C75.1742861,70.0003255 76.6666707,71.4926155 76.6666707,73.3335395 C76.6666707,75.1745611 75.1742861,76.6668511 73.3333659,76.6668511 C71.492348,76.6668511 70.000061,75.1745611 70.000061,73.3335395 C70.000061,71.4926155 71.492348,70.0003255 73.3333659,70.0003255 Z" id="Fill-1" fill="#FFFFFF"></path>
    </g>
</svg>