<?xml version="1.0" encoding="UTF-8"?>
<svg width="120px" height="120px" viewBox="0 0 120 120" version="1.1" xmlns="http://www.w3.org/2000/svg" xmlns:xlink="http://www.w3.org/1999/xlink">
    <!-- Generator: Sketch 64 (93537) - https://sketch.com -->
    <title>设置入参</title>
    <desc>Created with Sketch.</desc>
    <defs>
        <linearGradient x1="50%" y1="0%" x2="50%" y2="78.365116%" id="linearGradient-4">
            <stop stop-color="#69E6A2" offset="0%"></stop>
            <stop stop-color="#4AC578" offset="100%"></stop>
        </linearGradient>
    </defs>
    <g id="设置入参" stroke="none" stroke-width="1" fill="none" fill-rule="evenodd">
        <path d="M89,105 C91.7614237,105 94,107.238576 94,110 C94,112.761424 91.7614237,115 89,115 L29,115 C26.2385763,115 24,112.761424 24,110 C24,107.238576 26.2385763,105 29,105 L89,105 Z M110,5 C115.522847,5 120,9.4771525 120,15 L120,86 C120,91.5228475 115.522847,96 110,96 L10,96 C4.4771525,96 0,91.5228475 0,86 L0,15 C0,9.4771525 4.4771525,5 10,5 L110,5 Z M64,20 L54,20 L52.0019437,25.9926653 C50.4336441,26.4490432 48.9290083,27.0549272 47.5044932,27.79386 L46.9740879,28.0771643 L41.3223305,25.2512627 L34.2512627,32.3223305 L37.0771643,37.9740879 C36.3052264,39.3783156 35.6642803,40.8647212 35.170783,42.4168478 L34.9926653,43.0019437 L29,45 L29,55 L34.9923746,56.9970572 C35.4486789,58.5653489 36.054486,60.0699832 36.7933399,61.4945041 L37.0766146,62.024912 L34.2512627,67.6776695 L41.3223305,74.7487373 L46.9740879,71.9228357 C48.3780505,72.6946279 49.8641601,73.3354778 51.4159689,73.8289375 L52.0009447,74.0070439 L54,80 L64,80 L65.9980563,74.0073347 C67.5663559,73.5509568 69.0709917,72.9450728 70.4955068,72.20614 L71.0259121,71.9228357 L76.6776695,74.7487373 L83.7487373,67.6776695 L80.9228357,62.0259121 C81.6947736,60.6216844 82.3357197,59.1352788 82.829217,57.5831522 L83.0073347,56.9980563 L89,55 L89,45 L83.0070439,43.0009447 C82.5506887,41.4329681 81.9448873,39.9286348 81.2060877,38.5043924 L80.9228357,37.9740879 L83.7487373,32.3223305 L76.6776695,25.2512627 L71.024912,28.0766146 C69.6206765,27.304756 68.1342707,26.6638874 66.5821505,26.1704645 L65.9970572,25.9923746 L64,20 Z M59,35 C67.2842712,35 74,41.7157288 74,50 C74,58.1794071 67.4532136,64.8297302 59.3138282,64.9967822 L59,65 L58.6861718,64.9967822 C50.679792,64.83246 44.2143873,58.3950217 44.0052229,50.3997324 L44,50 C44,41.8477346 50.5034101,35.2144221 58.605198,35.0050947 L59,35 Z" id="形状" fill="url(#linearGradient-4)"></path>
    </g>
</svg>