<?xml version="1.0" encoding="UTF-8"?>
<svg width="120px" height="120px" viewBox="0 0 120 120" version="1.1" xmlns="http://www.w3.org/2000/svg" xmlns:xlink="http://www.w3.org/1999/xlink">
    <!-- Generator: Sketch 64 (93537) - https://sketch.com -->
    <title>选择权限</title>
    <desc>Created with Sketch.</desc>
    <defs>
        <linearGradient x1="87.2223268%" y1="0%" x2="2.23550452%" y2="100%" id="linearGradient-5">
            <stop stop-color="#5DCBF9" offset="0%"></stop>
            <stop stop-color="#189BF9" offset="100%"></stop>
        </linearGradient>
    </defs>
    <g id="选择权限" stroke="none" stroke-width="1" fill="none" fill-rule="evenodd">
        <path d="M116,18 C118.209139,18 120,19.790861 120,22 L120,114 C120,117.238397 117.434425,119.877572 114.224938,119.995862 L114,120 L22,120 C19.790861,120 18,118.209139 18,116 C18,113.790861 19.790861,112 22,112 L112,112 L112,22 C112,19.790861 113.790861,18 116,18 Z M100,0 C103.313708,0 106,2.6862915 106,6 L106,100 C106,103.313708 103.313708,106 100,106 L6,106 C2.6862915,106 0,103.313708 0,100 L0,6 C0,2.6862915 2.6862915,0 6,0 L100,0 Z M37.0148804,22.3470826 C35.417234,22.3576389 34.1194835,23.6151081 34.0385804,25.1904805 L34.0346454,25.366783 L34.3626868,75.3204216 C34.364963,75.6670347 34.4572826,76.0071059 34.6305929,76.3072881 C35.1565784,77.2183216 36.2910864,77.5589834 37.2242763,77.1122772 L37.3626437,77.0393389 L49.1310778,70.2448302 L60.6311012,90.163401 C61.1570867,91.0744346 62.2915947,91.4150963 63.2247847,90.9683901 L63.3631521,90.8954518 L79.8176347,81.3954518 C80.7286683,80.8694664 81.06933,79.7349584 80.6226238,78.8017684 L80.5496855,78.663401 L69.0496621,58.7448302 L81.6373563,51.4773216 C81.9375385,51.3040114 82.1875252,51.0556609 82.362803,50.7566233 C82.8947597,49.8490634 82.6301037,48.6944569 81.7805086,48.104052 L81.6487087,48.0198241 L38.5516094,22.7589126 C38.0857585,22.485859 37.5548458,22.3436014 37.0148804,22.3470826 Z M41,32.2153903 L72.0884573,50.0621778 L60.8535097,56.5486778 L73.3535331,78.1992994 L63.8272537,83.6992994 L51.3272303,62.0486778 L40.9115427,68.0621778 L41,32.2153903 Z" id="形状" fill="url(#linearGradient-5)"></path>
    </g>
</svg>