<?xml version="1.0" encoding="UTF-8"?>
<svg width="160px" height="160px" viewBox="0 0 160 160" version="1.1" xmlns="http://www.w3.org/2000/svg" xmlns:xlink="http://www.w3.org/1999/xlink">
    <!-- Generator: Sketch 58 (84663) - https://sketch.com -->
    <title>多选备份 2</title>
    <desc>Created with Sketch.</desc>
    <g id="多选备份-2" stroke="none" stroke-width="1" fill="none" fill-rule="evenodd">
        <g id="折线图" transform="translate(5.000000, 10.000000)">
            <path d="M0,0 L150,0 L150,140 L0,140 L0,0 Z M10,10 L10,130 L140,130 L140,10 L10,10 Z" id="矩形" fill="#18AEB7" fill-rule="nonzero"></path>
            <path d="M44,110 L44,115 L34,115 L34,110 L44,110 Z M25,106 L25,110 L32,110 L32,115 L20,115 L20,106 L25,106 Z M56,110 L56,115 L46,115 L46,110 L56,110 Z M68,110 L68,115 L58,115 L58,110 L68,110 Z M80,110 L80,115 L70,115 L70,110 L80,110 Z M92,110 L92,115 L82,115 L82,110 L92,110 Z M104,110 L104,115 L94,115 L94,110 L104,110 Z M116,110 L116,115 L106,115 L106,110 L116,110 Z M130,106 L130,115 L118,115 L118,110 L125,110 L125,106 L130,106 Z M32,95 L32,100 L25,100 L25,104 L20,104 L20,95 L32,95 Z M130,95 L130,104 L125,104 L125,100 L118,100 L118,95 L130,95 Z M44,95 L44,100 L34,100 L34,95 L44,95 Z M56,95 L56,100 L46,100 L46,95 L56,95 Z M68,95 L68,100 L58,100 L58,95 L68,95 Z M80,95 L80,100 L70,100 L70,95 L80,95 Z M92,95 L92,100 L82,100 L82,95 L92,95 Z M104,95 L104,100 L94,100 L94,95 L104,95 Z M116,95 L116,100 L106,100 L106,95 L116,95 Z M130,60 L130,80 L20,80 L20,60 L130,60 Z M130,25 L130,45 L20,45 L20,25 L130,25 Z" id="形状结合" fill="#F6C444"></path>
        </g>
    </g>
</svg>