<?xml version="1.0" encoding="UTF-8"?>
<svg width="160px" height="160px" viewBox="0 0 160 160" version="1.1" xmlns="http://www.w3.org/2000/svg" xmlns:xlink="http://www.w3.org/1999/xlink">
    <!-- Generator: Sketch 58 (84663) - https://sketch.com -->
    <title>switch 开关备份 2</title>
    <desc>Created with Sketch.</desc>
    <g id="switch-开关备份-2" stroke="none" stroke-width="1" fill="none" fill-rule="evenodd">
        <g id="仪表盘" transform="translate(0.000000, 35.000000)">
            <path d="M45,0 L115,0 C139.852814,0 160,20.1471863 160,45 C160,69.8528137 139.852814,90 115,90 L45,90 C20.1471863,90 0,69.8528137 0,45 C0,20.1471863 20.1471863,0 45,0 Z M45,10 C25.6700338,10 10,25.6700338 10,45 C10,64.3299662 25.6700338,80 45,80 L115,80 C134.329966,80 150,64.3299662 150,45 C150,25.6700338 134.329966,10 115,10 L45,10 Z" id="矩形" fill="#18AEB7" fill-rule="nonzero"></path>
            <circle id="椭圆形" fill="#F6C444" cx="115" cy="45" r="25"></circle>
        </g>
    </g>
</svg>