<?xml version="1.0" encoding="UTF-8"?>
<svg width="100px" height="100px" viewBox="0 0 100 100" version="1.1" xmlns="http://www.w3.org/2000/svg" xmlns:xlink="http://www.w3.org/1999/xlink">
    <!-- Generator: Sketch 64 (93537) - https://sketch.com -->
    <title>下移</title>
    <desc>Created with Sketch.</desc>
    <g id="下移" stroke="none" stroke-width="1" fill="none" fill-rule="evenodd">
        <path d="M96.5,4 C98.4329966,4 100,5.56700338 100,7.5 L100,28.5 C100,30.4329966 98.4329966,32 96.5,32 L55,32 L54.999,80.563 L66.263456,69.2987807 L66.4200866,69.148683 C68.3818596,67.3475114 71.4332871,67.397544 73.3345238,69.2987807 C75.2279749,71.1922318 75.2853522,74.2264729 73.5066557,76.1890628 L73.3345238,76.3698485 L53.5355339,96.1688384 L53.3789033,96.318936 C51.4765779,98.0655266 48.5496372,98.0714074 46.640412,96.3365783 L46.4644661,96.1688384 L26.6654762,76.3698485 L26.5153786,76.2132179 C24.768788,74.3108925 24.7629072,71.3839518 26.4977363,69.4747266 L26.6654762,69.2987807 L26.8221068,69.148683 C28.7244322,67.4020924 31.651373,67.3962116 33.5605981,69.1310407 L33.736544,69.2987807 L44.999,80.562 L44.999,32 L3.5,32 C1.56700338,32 0,30.4329966 0,28.5 L0,7.5 C0,5.56700338 1.56700338,4 3.5,4 L96.5,4 Z M93,11 L7,11 L7,25 L93,25 L93,11 Z" id="形状" fill="#438EF7" fill-rule="nonzero"></path>
        <path d="M38,42 L38,49 L3.5,49 C1.56700338,49 0,47.4329966 0,45.5 C0,43.5670034 1.56700338,42 3.5,42 L38,42 Z M96.5,42 C98.4329966,42 100,43.5670034 100,45.5 C100,47.4329966 98.4329966,49 96.5,49 L62,49 L62,42 L96.5,42 Z" id="形状" fill="#A8CCFF"></path>
    </g>
</svg>