<?xml version="1.0" encoding="UTF-8"?>
<svg width="108px" height="108px" viewBox="0 0 108 108" version="1.1" xmlns="http://www.w3.org/2000/svg" xmlns:xlink="http://www.w3.org/1999/xlink">
    <!-- Generator: Sketch 64 (93537) - https://sketch.com -->
    <title>开始设置</title>
    <desc>Created with Sketch.</desc>
    <g id="开始设置" stroke="none" stroke-width="1" fill="none" fill-rule="evenodd">
        <g id="分组-11" transform="translate(2.000000, 2.000000)" fill="#FFFFFF" fill-rule="nonzero">
            <path d="M62.105601,0 C64.7254609,0 67.0050792,1.88842105 67.4020277,4.39536842 L67.4020277,4.39536842 L69.0862233,15.9776842 C71.2807812,16.9684211 73.4129615,18.1781053 75.4487401,19.5903158 L75.4487401,19.5903158 L86.5519557,15.2332632 C89.1491328,14.2698947 91.8937479,15.3098947 93.1753244,17.4774737 L93.1753244,17.4774737 L103.280498,34.5444211 C104.596099,36.7503158 104.068724,39.5418947 102.015934,41.1621053 L102.015934,41.1621053 L92.5402068,48.3928421 C92.6592914,49.5861053 92.7330104,50.7848421 92.7330104,52 C92.7330104,53.2151579 92.6592914,54.4138947 92.5402068,55.6071579 L92.5402068,55.6071579 L101.970568,62.7941053 C104.074395,64.4745263 104.584757,67.2661053 103.263486,69.4665263 L103.263486,69.4665263 L93.1753244,86.5225263 C92.2113067,88.1372632 90.4307093,89.1334737 88.5253566,89.1334737 C87.856215,89.1334737 87.2040853,89.0185263 86.5803092,88.7831579 L86.5803092,88.7831579 L75.4487401,84.4042105 C73.4129615,85.8164211 71.2807812,87.0206316 69.0862233,88.0168421 L69.0862233,88.0168421 L67.4076984,99.5663158 C66.9937378,102.111579 64.7197902,104 62.0999303,104 L62.0999303,104 L41.8895828,104 C39.2413695,104 37.0127874,102.155368 36.5988268,99.6101053 L36.5988268,99.6101053 L34.9146312,88.0113684 C32.725744,87.0261053 30.5935637,85.8164211 28.5521144,84.4042105 L28.5521144,84.4042105 L17.4488988,88.7612632 C14.9254407,89.7301053 12.118448,88.6901053 10.8312008,86.528 L10.8312008,86.528 L0.720356381,69.4501053 C-0.595244243,67.2496842 -0.0678698548,64.4635789 1.9679087,62.8378947 L1.9679087,62.8378947 L11.454977,55.6071579 C11.3358925,54.4193684 11.2621735,53.2151579 11.2621735,52 C11.2621735,50.7848421 11.3358925,49.5806316 11.454977,48.3928421 L11.454977,48.3928421 L2.01894493,41.1894737 C-0.0678698548,39.5528421 -0.595244243,36.7612632 0.720356381,34.5389474 L0.720356381,34.5389474 L10.8255301,17.4774737 C12.1071066,15.3098947 15.0105011,14.3191579 17.409204,15.2168421 L17.409204,15.2168421 L28.540773,19.5903158 C30.5765516,18.1835789 32.7087319,16.9738947 34.9089605,15.9776842 L34.9089605,15.9776842 L36.5874855,4.43368421 C37.0071167,1.84463158 39.2356988,0 41.8895828,0 L41.8895828,0 Z M61.7363382,5.77777778 L41.9364847,6.05344092 L40.3682912,18.6582731 C40.2272666,19.604176 39.5841944,20.4095448 38.664714,20.7770956 C35.9231958,21.8797482 33.2719334,23.3715722 30.7955415,25.2093265 C30.0001627,25.7984889 28.9396577,25.939023 28.0032544,25.5714722 L28.0032544,25.5714722 L15.4971931,20.6960182 L5.87931549,37.4412026 L16.3884685,45.1327447 C17.1725653,45.7219071 17.5674342,46.6569997 17.4376915,47.6029027 C17.2402571,49.0406751 17.1105145,50.5054734 17.1105145,51.9972974 C17.1105145,53.4891215 17.2402571,54.9539197 17.4433325,56.4025025 C17.5674342,57.3430003 17.1725653,58.283498 16.3941095,58.8726604 L16.3941095,58.8726604 L5.77777778,66.9047276 L15.9371898,83.4120849 L28.0145364,78.4231226 C28.3586364,78.2879937 28.7196594,78.2231317 29.0750414,78.2231317 C29.6899086,78.2231317 30.2991349,78.4177175 30.8011824,78.7852683 C33.2888563,80.6284278 35.9344778,82.1202518 38.6534321,83.2012837 C39.5729124,83.5742397 40.2272666,84.3796085 40.3626502,85.3255114 L40.3626502,85.3255114 L42.2467388,98.2222222 L61.7701841,97.9465591 L63.6147859,85.3255114 C63.7558105,84.3796085 64.4045236,83.5688346 65.324004,83.2012837 C68.0655222,82.1094415 70.7055027,80.6230226 73.1762536,78.7852683 C73.9716324,78.1907008 75.0321373,78.0447615 75.9685407,78.4177175 L75.9685407,78.4177175 L88.485884,83.2985766 L98.1037616,66.5533922 L87.6002495,58.8726604 C86.8217937,58.283498 86.4212839,57.3484054 86.5453855,56.4079076 C86.7428199,54.9593249 86.8782036,53.4945266 86.8782036,52.0027026 C86.8782036,50.5108785 86.737179,49.0460803 86.5453855,47.5974975 C86.4212839,46.6569997 86.8217937,45.7219071 87.6002495,45.1327447 L87.6002495,45.1327447 L98.2222222,37.0898673 L88.0571692,20.5933202 L75.9798226,25.5768774 C75.0490603,25.939023 73.9885553,25.7984889 73.1875356,25.2093265 C70.7055027,23.3661671 68.0598812,21.8797482 65.329645,20.787906 C64.4101646,20.4203551 63.7558105,19.6149863 63.6204269,18.6690834 L63.6204269,18.6690834 L61.7363382,5.77777778 Z M52.0038637,23.1111111 C67.9300373,23.1111111 80.8888889,36.0689655 80.8888889,52 C80.8888889,67.9310345 67.9377647,80.8888889 52.0038637,80.8888889 C36.0699627,80.8888889 23.1111111,67.9233716 23.1111111,52 C23.1111111,36.0689655 36.0699627,23.1111111 52.0038637,23.1111111 Z M52.0042197,28.8888889 C39.2608281,28.8888889 28.8888889,39.2513438 28.8888889,52 C28.8888889,64.7486562 39.2608281,75.1111111 52.0042197,75.1111111 C64.7391719,75.1111111 75.1111111,64.7403129 75.1111111,52 C75.1111111,39.2596871 64.7476112,28.8888889 52.0042197,28.8888889 Z M46.4,41.3474068 C46.47897,41.3474068 46.5561731,41.370782 46.6218801,41.4145867 L63.5007698,52.6671799 C63.6845813,52.7897209 63.7342508,53.0380686 63.6117099,53.2218801 C63.5824159,53.265821 63.5447107,53.3035262 63.5007698,53.3328201 L46.6218801,64.5854133 C46.4380686,64.7079543 46.1897209,64.6582847 46.0671799,64.4744732 C46.0233752,64.4087662 46,64.3315632 46,64.2525932 L46,41.7474068 C46,41.5264929 46.1790861,41.3474068 46.4,41.3474068 Z" id="形状结合"></path>
        </g>
    </g>
</svg>