<?xml version="1.0" encoding="UTF-8"?>
<svg width="100px" height="100px" viewBox="0 0 100 100" version="1.1" xmlns="http://www.w3.org/2000/svg" xmlns:xlink="http://www.w3.org/1999/xlink">
    <!-- Generator: Sketch 64 (93537) - https://sketch.com -->
    <title>上移-不可点击</title>
    <desc>Created with Sketch.</desc>
    <g id="上移-不可点击" stroke="none" stroke-width="1" fill="none" fill-rule="evenodd">
        <path d="M53.3789033,4.34969316 L53.5355339,4.4997908 L73.3345238,24.2987807 C75.2871452,26.2514021 75.2871452,29.417227 73.3345238,31.3698485 C71.4332871,33.2710852 68.3818596,33.3211177 66.4200866,31.5199461 L66.263456,31.3698485 L54.999,20.1053247 L54.999,67.9993247 L96.5,68 C98.4329966,68 100,69.5670034 100,71.5 L100,92.5 C100,94.4329966 98.4329966,96 96.5,96 L3.5,96 C1.56700338,96 0,94.4329966 0,92.5 L0,71.5 C0,69.5670034 1.56700338,68 3.5,68 L44.999,67.9993247 L44.999,20.1053247 L33.736544,31.3698485 C31.8353073,33.2710852 28.7838799,33.3211177 26.8221068,31.5199461 L26.6654762,31.3698485 C24.7642395,29.4686118 24.714207,26.4171843 26.5153786,24.4554113 L26.6654762,24.2987807 L46.4644661,4.4997908 C48.3657028,2.59855411 51.4171303,2.54852157 53.3789033,4.34969316 Z M93,75 L7,75 L7,89 L93,89 L93,75 Z" id="形状" fill="#B7B7B7" fill-rule="nonzero"></path>
        <path d="M38,51 L38,58 L3.5,58 C1.56700338,58 0,56.4329966 0,54.5 C0,52.5670034 1.56700338,51 3.5,51 L38,51 Z M96.5,51 C98.4329966,51 100,52.5670034 100,54.5 C100,56.4329966 98.4329966,58 96.5,58 L62,58 L62,51 L96.5,51 Z" id="形状" fill="#DFDFDF"></path>
    </g>
</svg>