<?xml version="1.0" encoding="UTF-8"?>
<svg width="160px" height="160px" viewBox="0 0 160 160" version="1.1" xmlns="http://www.w3.org/2000/svg" xmlns:xlink="http://www.w3.org/1999/xlink">
    <!-- Generator: Sketch 58 (84663) - https://sketch.com -->
    <title>数字输入框备份</title>
    <desc>Created with Sketch.</desc>
    <g id="数字输入框备份" stroke="none" stroke-width="1" fill="none" fill-rule="evenodd">
        <g id="分组-2" transform="translate(10.000000, 10.000000)" fill-rule="nonzero">
            <g id="图片组件-copy">
                <path d="M20,0 L20,5 L120,5 L120,0 L140,0 L140,20 L135,20 L135,120 L140,120 L140,140 L120,140 L120,135 L20,135 L20,140 L0,140 L0,120 L5,120 L5,20 L0,20 L0,0 L20,0 Z M120,14.999 L20,14.999 L20,20 L14.999,20 L14.999,120 L20,120 L20,124.999 L120,124.999 L120,120 L124.999,120 L124.999,20 L120,20 L120,14.999 Z" id="形状结合" fill="#18AEB7"></path>
                <path d="M89.5778856,49.5501778 C85.9325168,47.598441 81.9628314,46.6225872 77.6687104,46.6225872 C72.1388712,46.6225872 67.7135216,48.6689671 64.3925288,52.7617882 C61.071536,56.8546094 59.4110645,62.1489801 59.4110645,68.6450592 L59.6890997,68.6450592 C63.1182179,63.6928912 68.200033,61.2168444 74.9346975,61.2168444 C80.958824,61.2168444 85.7394373,63.1612694 89.2766808,67.0501778 C92.8139243,70.9390861 94.5825195,76.0004171 94.5825195,82.2343226 C94.5825195,89.0508361 92.2810288,94.6802013 87.6779783,99.1225872 C83.0749278,103.564973 77.1899079,105.786133 70.022742,105.786133 C61.8052155,105.786133 55.5108701,102.989656 51.1395168,97.3966197 C46.7681634,91.803583 44.5825195,84.1424028 44.5825195,74.4128494 C44.5825195,62.9646024 47.4169058,53.6648619 53.0857633,46.5133488 C58.7546208,39.3618357 66.6399296,35.7861328 76.7419264,35.7861328 C82.1790867,35.7861328 86.457697,36.397862 89.5778856,37.6213388 L89.5778856,49.5501778 Z M59.9207957,82.3654087 C59.9207957,85.8610567 60.8475705,88.8323128 62.7011479,91.2792664 C64.5547253,93.72622 66.9952322,94.9496784 70.022742,94.9496784 C73.0811446,94.9496784 75.4907591,93.8281748 77.2516576,91.5851341 C79.0125561,89.3420933 79.8929922,86.5310519 79.8929922,83.1519256 C79.8929922,75.5488913 76.5720492,71.7474312 69.9300636,71.7474312 C66.9334468,71.7474312 64.5161092,72.7524149 62.6779783,74.7624125 C60.8398474,76.77241 59.9207957,79.3067168 59.9207957,82.3654087 Z" id="6" fill="#F6C444"></path>
            </g>
        </g>
    </g>
</svg>