<?xml version="1.0" encoding="UTF-8"?>
<svg width="160px" height="160px" viewBox="0 0 160 160" version="1.1" xmlns="http://www.w3.org/2000/svg" xmlns:xlink="http://www.w3.org/1999/xlink">
    <!-- Generator: Sketch 64 (93537) - https://sketch.com -->
    <title>富文本输入框</title>
    <desc>Created with Sketch.</desc>
    <g id="富文本输入框" stroke="none" stroke-width="1" fill="none" fill-rule="evenodd">
        <g id="分组-2" transform="translate(10.000000, 10.000000)">
            <g id="图片组件-copy">
                <path d="M20,0 L20,5 L120,5 L120,0 L140,0 L140,20 L135,20 L135,120 L140,120 L140,140 L120,140 L120,135 L20,135 L20,140 L0,140 L0,120 L5,120 L5,20 L0,20 L0,0 L20,0 Z M120,14.999 L20,14.999 L20,20 L14.999,20 L14.999,120 L20,120 L20,124.999 L120,124.999 L120,120 L124.999,120 L124.999,20 L120,20 L120,14.999 Z" id="形状结合" fill="#18AEB7" fill-rule="nonzero"></path>
                <path d="M110,95 L110,105 L60,105 L60,95 L110,95 Z M50.232233,60.232233 L53.767767,63.767767 L36,81.5355339 L25.232233,70.767767 L28.767767,67.232233 L36,74.465 L50.232233,60.232233 Z M110,65 L110,75 L60,75 L60,65 L110,65 Z M50.232233,28.232233 L53.767767,31.767767 L36,49.5355339 L25.232233,38.767767 L28.767767,35.232233 L36,42.465 L50.232233,28.232233 Z M110,35 L110,45 L60,45 L60,35 L110,35 Z" id="形状结合" fill="#F6C444"></path>
            </g>
        </g>
    </g>
</svg>