<?xml version="1.0" encoding="UTF-8"?>
<svg width="160px" height="160px" viewBox="0 0 160 160" version="1.1" xmlns="http://www.w3.org/2000/svg" xmlns:xlink="http://www.w3.org/1999/xlink">
    <!-- Generator: Sketch 58 (84663) - https://sketch.com -->
    <title>面包屑备份</title>
    <desc>Created with Sketch.</desc>
    <g id="面包屑备份" stroke="none" stroke-width="1" fill="none" fill-rule="evenodd">
        <path d="M25,80 L135,80 L160,145 L0,145 L25,80 Z M31.867991,90 L14.5602987,135 L145.439701,135 L128.132009,90 L31.867991,90 Z" id="矩形" fill="#18AEB7" fill-rule="nonzero"></path>
        <path d="M78.8267913,15.1726284 C56.8241868,17.2446652 41.7622481,38.3985145 45.5966925,60.0027106 C49.4958499,81.9432111 69.8798218,88.7062428 79.9912199,113.329148 C80.8972012,115.546347 84.0523619,115.562008 84.9583431,113.345611 C96.1694569,86.0075755 120,80.6907532 120,52.2600793 C120,30.4804026 101.184913,13.0682662 78.8267913,15.1726284 Z M82.4668946,71.9363977 C71.5142282,71.9363977 62.6485543,63.1344577 62.6485543,52.2600793 C62.6485543,41.3859017 71.5142282,32.5837609 82.4668946,32.5837609 C93.4195611,32.5837609 102.285235,41.3859017 102.285235,52.2600793 C102.285235,63.1187969 93.4195611,71.9363977 82.4668946,71.9363977 Z" id="Fill-3" fill="#F6C444"></path>
    </g>
</svg>