<?xml version="1.0" encoding="UTF-8"?>
<svg width="160px" height="160px" viewBox="0 0 160 160" version="1.1" xmlns="http://www.w3.org/2000/svg" xmlns:xlink="http://www.w3.org/1999/xlink">
    <!-- Generator: Sketch 58 (84663) - https://sketch.com -->
    <title>按钮备份 2</title>
    <desc>Created with Sketch.</desc>
    <g id="按钮备份-2" stroke="none" stroke-width="1" fill="none" fill-rule="evenodd">
        <g id="图片组件" transform="translate(0.000000, 25.000000)" fill-rule="nonzero">
            <path d="M0,0 L160,0 L160,110 L0,110 L0,0 Z M10,10 L10,100 L150,100 L150,10 L10,10 Z" id="矩形" fill="#18AEB7"></path>
            <path d="M28,75 L28,33 L42.6377526,33 C47.1266858,33 50.5864837,33.8676479 53.0172499,35.6029697 C55.4480161,37.3382914 56.663381,39.7423991 56.663381,42.8153648 C56.663381,45.0929746 55.9093225,47.0903723 54.4011828,48.8076178 C52.8930432,50.5248633 50.9945901,51.7088412 48.7057664,52.3595868 L48.7057664,52.4680439 C51.5801031,52.8295693 53.8999419,53.9141291 55.6653524,55.721756 C57.4307629,57.5293828 58.3134549,59.7979205 58.3134549,62.5274371 C58.3134549,66.3415297 56.9827634,69.3737783 54.3213406,71.6242737 C51.6599177,73.8747692 48.0226943,75 43.4095614,75 L28,75 Z M36.7826516,39.6701097 L36.7826516,50.0548741 L40.9610646,50.0548741 C42.9660031,50.0548741 44.5450903,49.5668222 45.6983736,48.5907037 C46.8516568,47.6145852 47.4282898,46.2498474 47.4282898,44.4964493 C47.4282898,41.2788735 45.1217579,39.6701097 40.5086249,39.6701097 L36.7826516,39.6701097 Z M36.7826516,56.8063267 L36.7826516,68.3298903 L41.9990143,68.3298903 C44.2168667,68.3298903 45.9512012,67.8056863 47.20207,66.7572628 C48.4529387,65.7088392 49.0783637,64.2537214 49.0783637,62.3918657 C49.0783637,60.6203914 48.4573744,59.2466156 47.215377,58.2704971 C45.9733797,57.2943786 44.2079957,56.8063267 41.919172,56.8063267 L36.7826516,56.8063267 Z M93.7102021,40.3208522 L81.9467718,40.3208522 L81.9467718,75 L73.1375062,75 L73.1375062,40.3208522 L61.40069,40.3208522 L61.40069,33 L93.7102021,33 L93.7102021,40.3208522 Z M136,75 L127.004436,75 L109.545589,47.8315042 C108.640705,46.4215552 107.984231,45.2827674 107.576146,44.4151065 L107.443075,44.4151065 C107.602761,45.861208 107.682602,48.0935937 107.682602,51.1123305 L107.682602,75 L99.3523903,75 L99.3523903,33 L108.933465,33 L125.753573,59.4092963 C126.871371,61.1626944 127.554459,62.2743682 127.802859,62.7443512 L127.935929,62.7443512 C127.758501,61.7320802 127.669788,59.7979484 127.669788,56.941898 L127.669788,33 L136,33 L136,75 Z" id="BTN" fill="#F6C444"></path>
        </g>
    </g>
</svg>