<?xml version="1.0" encoding="UTF-8"?>
<svg width="160px" height="160px" viewBox="0 0 160 160" version="1.1" xmlns="http://www.w3.org/2000/svg" xmlns:xlink="http://www.w3.org/1999/xlink">
    <!-- Generator: Sketch 64 (93537) - https://sketch.com -->
    <title>下拉菜单</title>
    <desc>Created with Sketch.</desc>
    <g id="下拉菜单" stroke="none" stroke-width="1" fill="none" fill-rule="evenodd">
        <g id="折线图-copy" transform="translate(5.000000, 10.000000)">
            <path d="M150,140 L0,140 L0,0 L150,0 L150,140 Z M140,50 L10,50 L10,130 L140,130 L140,50 Z M140,10 L10,10 L10,40 L140,40 L140,10 Z" id="形状结合" fill="#18AEB7" fill-rule="nonzero"></path>
            <path d="M120,105 L120,115 L30,115 L30,105 L120,105 Z M120,85 L120,95 L30,95 L30,85 L120,85 Z M120,65 L120,75 L30,75 L30,65 L120,65 Z M130.089129,15.7425545 L134.33177,19.9851952 L121.603848,32.7131172 L108.875925,19.9851952 L113.118566,15.7425545 L121.603848,24.2278358 L130.089129,15.7425545 Z" id="形状结合" fill="#F6C444"></path>
        </g>
    </g>
</svg>