<?xml version="1.0" encoding="UTF-8"?>
<svg width="160px" height="160px" viewBox="0 0 160 160" version="1.1" xmlns="http://www.w3.org/2000/svg" xmlns:xlink="http://www.w3.org/1999/xlink">
    <!-- Generator: Sketch 58 (84663) - https://sketch.com -->
    <title>评分组件备份 2</title>
    <desc>Created with Sketch.</desc>
    <g id="评分组件备份-2" stroke="none" stroke-width="1" fill="none" fill-rule="evenodd">
        <g id="编组-24" transform="translate(3.000000, 20.000000)">
            <path d="M21.5,0 L28.1125841,13.3985588 L42.8987716,15.5471176 L32.1993858,25.9764412 L34.7251682,40.7028824 L21.5,33.75 L8.27483182,40.7028824 L10.8006142,25.9764412 L0.101228383,15.5471176 L14.8874159,13.3985588 L21.5,0 Z M76.5,0 L83.1125841,13.3985588 L97.8987716,15.5471176 L87.1993858,25.9764412 L89.7251682,40.7028824 L76.5,33.75 L63.2748318,40.7028824 L65.8006142,25.9764412 L55.1012284,15.5471176 L69.8874159,13.3985588 L76.5,0 Z M131.5,0 L138.112584,13.3985588 L152.898772,15.5471176 L142.199386,25.9764412 L144.725168,40.7028824 L131.5,33.75 L118.274832,40.7028824 L120.800614,25.9764412 L110.101228,15.5471176 L124.887416,13.3985588 L131.5,0 Z" id="形状结合" fill="#F6C444"></path>
            <path d="M152,110 L152,120 L2,120 L2,110 L152,110 Z M152,85 L152,95 L2,95 L2,85 L152,85 Z M152,60 L152,70 L2,70 L2,60 L152,60 Z" id="形状结合" fill="#18AEB7"></path>
        </g>
    </g>
</svg>