<?xml version="1.0" encoding="UTF-8"?>
<svg width="160px" height="160px" viewBox="0 0 160 160" version="1.1" xmlns="http://www.w3.org/2000/svg" xmlns:xlink="http://www.w3.org/1999/xlink">
    <!-- Generator: Sketch 58 (84663) - https://sketch.com -->
    <title>文本备份 2</title>
    <desc>Created with Sketch.</desc>
    <g id="文本备份-2" stroke="none" stroke-width="1" fill="none" fill-rule="evenodd">
        <g id="分组-2" transform="translate(15.000000, 15.000000)">
            <g id="图片组件-copy">
                <path d="M20,-5.32907052e-15 L19.999,5 L110,5 L110,-5.32907052e-15 L130,-5.32907052e-15 L130,20 L125,19.999 L125,110 L130,110 L130,130 L110,130 L110,125 L19.999,125 L20,130 L-5.32907052e-15,130 L-5.32907052e-15,110 L5,110 L5,19.999 L-5.32907052e-15,20 L-5.32907052e-15,-5.32907052e-15 L20,-5.32907052e-15 Z M110,15 L19.999,15 L20,20 L15,19.999 L15,110 L20,110 L19.999,115 L110,115 L110,110 L115,110 L115,19.999 L110,20 L110,15 Z" id="形状结合" fill="#18AEB7" fill-rule="nonzero"></path>
                <path d="M100,30 L100,45 L73,45 L73,100 L57,100 L57,45 L30,45 L30,30 L100,30 Z" id="形状结合" fill="#F6C444"></path>
            </g>
        </g>
    </g>
</svg>