<?xml version="1.0" encoding="UTF-8"?>
<svg width="160px" height="160px" viewBox="0 0 160 160" version="1.1" xmlns="http://www.w3.org/2000/svg" xmlns:xlink="http://www.w3.org/1999/xlink">
    <!-- Generator: Sketch 58 (84663) - https://sketch.com -->
    <title>文件上传备份</title>
    <desc>Created with Sketch.</desc>
    <g id="文件上传备份" stroke="none" stroke-width="1" fill="none" fill-rule="evenodd">
        <g id="编组-25" transform="translate(0.000000, 15.000000)">
            <path d="M0,135 L0,0 L85,0 L85,20 L140,20 L140,40 L160,40 L160,135 L30,135 L0,135 Z M75,30 L75,10 L10,10 L10,125 L30,125 L30,40 L130,40 L130,30 L75,30 Z M150,50 L40,50 L40,125 L150,125 L150,50 Z" id="形状结合" fill="#18AEB7"></path>
            <path d="M92.7487373,64 L117.497475,88.7487373 L110.426407,95.8198052 L98,83.394 L98,116 L88,116 L88,82.89 L75.0710678,95.8198052 L68,88.7487373 L92.7487373,64 Z" id="形状结合" fill="#F6C444"></path>
        </g>
    </g>
</svg>