<?xml version="1.0" encoding="UTF-8"?>
<svg width="108px" height="108px" viewBox="0 0 108 108" version="1.1" xmlns="http://www.w3.org/2000/svg" xmlns:xlink="http://www.w3.org/1999/xlink">
    <!-- Generator: Sketch 52 (66869) - http://www.bohemiancoding.com/sketch -->
    <title>甘特图拖拉</title>
    <desc>Created with Sketch.</desc>
    <g id="组件" stroke="none" stroke-width="1" fill="none" fill-rule="evenodd">
        <g id="甘特图拖拉" fill="#000000" fill-rule="nonzero">
            <g id="分组">
                <path d="M16,16 L16,44 L44,44 L44,16 L16,16 Z M10,10 L50,10 L50,50 L10,50 L10,10 Z M10,58 L16,58 L16,68 L10,68 L10,58 Z M44,88 L50,88 L50,98 L44,98 L44,88 Z M10,72 L16,72 L16,78 L10,78 L10,72 Z M20,58 L26,58 L26,64 L20,64 L20,58 Z M24,92 L30,92 L30,98 L24,98 L24,92 Z M30,58 L36,58 L36,64 L30,64 L30,58 Z M34,92 L40,92 L40,98 L34,98 L34,92 Z M44,68 L50,68 L50,74 L44,74 L44,68 Z M10,82 L16,82 L16,88 L10,88 L10,82 Z M10,92 L20,92 L20,98 L10,98 L10,92 Z M40,58 L50,58 L50,64 L40,64 L40,58 Z M44,78 L50,78 L50,84 L44,84 L44,78 Z M79,24 C80.6568542,24 82,25.3431458 82,27 L82,81 C82,82.6568542 80.6568542,84 79,84 C77.3431458,84 76,82.6568542 76,81 L76,27 C76,25.3431458 77.3431458,24 79,24 Z M79,17 L63,32 C61.9393121,33.2898786 60.0398267,33.2839839 59,32 C57.704115,30.9811436 57.7101318,29.1202174 59,28 L76,11 C77.7405687,9.62032448 80.2594313,9.62032448 82,11 L99,28 C100.289868,29.1202174 100.295885,30.9811436 99,32 C97.9601733,33.2839839 96.0606879,33.2898786 95,32 L79,17 Z M63,76 L79,91 L95,76 C96.0606879,74.7101214 97.9601733,74.7160161 99,76 C100.295885,77.0188564 100.289868,78.8797826 99,80 L82,97 C80.2594313,98.3796755 77.7405687,98.3796755 76,97 L59,80 C57.7101318,78.8797826 57.704115,77.0188564 59,76 C60.0398267,74.7160161 61.9393121,74.7101214 63,76 Z" id="形状"></path>
            </g>
        </g>
        <g id="页面">
            <g></g>
        </g>
    </g>
</svg>