<?xml version="1.0" encoding="UTF-8"?>
<svg width="100px" height="100px" viewBox="0 0 100 100" version="1.1" xmlns="http://www.w3.org/2000/svg" xmlns:xlink="http://www.w3.org/1999/xlink">
    <!-- Generator: Sketch 52 (66869) - http://www.bohemiancoding.com/sketch -->
    <title>产线级</title>
    <desc>Created with Sketch.</desc>
    <g id="组件" stroke="none" stroke-width="1" fill="none" fill-rule="evenodd">
        <g id="产线级" fill-rule="nonzero">
            <path d="M57.3299078,16.381107 L63.6048885,18.1197491 L68.8049439,24.3598156 C69.158508,24.7840925 69.1011839,25.4146572 68.676907,25.7682213 C68.2526301,26.1217854 67.6220654,26.0644613 67.2685013,25.6401844 L62.4685568,19.8802509 L56.6041907,18.25538 C56.1574114,19.0394871 55.5476875,19.7450889 54.7860777,20.3179537 L52.2215245,22.2469493 L53.0806106,27.2176458 L58.1127192,32.3359863 C58.4999119,32.7298141 58.4945331,33.3629562 58.1007054,33.7501489 C57.7068776,34.1373415 57.0737355,34.1319628 56.6865428,33.738135 L51.2162675,28.1741192 L50.4253715,23.5979727 L36.6662052,33.9472889 C35.4690721,28.5643072 31.1727558,24.3485977 25.7463702,23.2692741 L48.4433655,9.41687084 C51.2108449,7.72782608 54.8235715,8.60207011 56.5126163,11.3695495 C56.5374637,11.4102617 56.5618141,11.4512752 56.5856619,11.4925809 C57.4686271,13.0219215 57.6932557,14.7664482 57.3299078,16.381107 Z M42.0500441,64 L82,64 C89.7319865,64 96,70.2680135 96,78 C96,85.7319865 89.7319865,92 82,92 L18,92 C10.2680135,92 4,85.7319865 4,78 C4,71.8428709 7.97469925,66.6140825 13.498224,64.7395086 L12.1006195,37.4862205 C11.8184659,31.9842244 16.0499842,27.2952446 21.5519803,27.013091 C21.7221353,27.0043651 21.892486,27 22.0628646,27 C28.241878,27 33.6360912,31.1855836 35.1708058,37.1709706 L42.0500441,64 Z M23,41 C25.7614237,41 28,38.7614237 28,36 C28,33.2385763 25.7614237,31 23,31 C20.2385763,31 18,33.2385763 18,36 C18,38.7614237 20.2385763,41 23,41 Z M18,70 C13.581722,70 10,73.581722 10,78 C10,82.418278 13.581722,86 18,86 L82,86 C86.418278,86 90,82.418278 90,78 C90,73.581722 86.418278,70 82,70 L18,70 Z M52,17 C53.6568542,17 55,15.6568542 55,14 C55,12.3431458 53.6568542,11 52,11 C50.3431458,11 49,12.3431458 49,14 C49,15.6568542 50.3431458,17 52,17 Z M55,46 L79,46 L79,62 L55,62 L55,46 Z M61,42 L73,42 L79,45 L55,45 L61,42 Z" id="形状" fill="#1BAFA6"></path>
            <path d="M20,83 C17.2385763,83 15,80.7614237 15,78 C15,75.2385763 17.2385763,73 20,73 C22.7614237,73 25,75.2385763 25,78 C25,80.7614237 22.7614237,83 20,83 Z M40,83 C37.2385763,83 35,80.7614237 35,78 C35,75.2385763 37.2385763,73 40,73 C42.7614237,73 45,75.2385763 45,78 C45,80.7614237 42.7614237,83 40,83 Z M60,83 C57.2385763,83 55,80.7614237 55,78 C55,75.2385763 57.2385763,73 60,73 C62.7614237,73 65,75.2385763 65,78 C65,80.7614237 62.7614237,83 60,83 Z M80,83 C77.2385763,83 75,80.7614237 75,78 C75,75.2385763 77.2385763,73 80,73 C82.7614237,73 85,75.2385763 85,78 C85,80.7614237 82.7614237,83 80,83 Z" id="合并形状" fill="#F5A623"></path>
        </g>
        <g id="页面">
            <g></g>
        </g>
    </g>
</svg>