<?xml version="1.0" encoding="UTF-8"?>
<svg width="100px" height="100px" viewBox="0 0 100 100" version="1.1" xmlns="http://www.w3.org/2000/svg" xmlns:xlink="http://www.w3.org/1999/xlink">
    <!-- Generator: Sketch 52 (66869) - http://www.bohemiancoding.com/sketch -->
    <title>锁定</title>
    <desc>Created with Sketch.</desc>
    <g id="组件" stroke="none" stroke-width="1" fill="none" fill-rule="evenodd">
        <g id="锁定" fill-rule="nonzero">
            <path d="M69,37 L69,29 C69,18.5065898 60.4934102,10 50,10 C39.5065898,10 31,18.5065898 31,29 L31,37 L69,37 Z M23,37 L23,29 C23,14.0883118 35.0883118,2 50,2 C64.9116882,2 77,14.0883118 77,29 L77,37 L88,37 C91.3137085,37 94,39.6862915 94,43 L94,90 C94,93.3137085 91.3137085,96 88,96 L12,96 C8.6862915,96 6,93.3137085 6,90 L6,43 C6,39.6862915 8.6862915,37 12,37 L23,37 Z M14,45 L14,88 L86,88 L86,45 L14,45 Z" id="形状" fill="#F5A623"></path>
            <path d="M44,58.3472623 L44,67 C44,70.3137085 46.6862915,73 50,73 C53.3137085,73 56,70.3137085 56,67 L56,58.3472623 C60.7298947,60.5941902 64,65.4152081 64,71 C64,78.7319865 57.7319865,85 50,85 C42.2680135,85 36,78.7319865 36,71 C36,65.4152081 39.2701053,60.5941902 44,58.3472623 Z" id="路径" fill="#1BAFA6" opacity="0.5"></path>
            <path d="M50,48 C47.790861,48 46,49.790861 46,52 L46,67 C46,69.209139 47.790861,71 50,71 C52.209139,71 54,69.209139 54,67 L54,52 C54,49.790861 52.209139,48 50,48 Z" id="路径" fill="#1BAFA6"></path>
        </g>
        <g id="页面">
            <g></g>
        </g>
    </g>
</svg>