<?xml version="1.0" encoding="UTF-8"?>
<svg width="100px" height="100px" viewBox="0 0 100 100" version="1.1" xmlns="http://www.w3.org/2000/svg" xmlns:xlink="http://www.w3.org/1999/xlink">
    <!-- Generator: Sketch 52 (66869) - http://www.bohemiancoding.com/sketch -->
    <title>项目级 </title>
    <desc>Created with Sketch.</desc>
    <g id="组件" stroke="none" stroke-width="1" fill="none" fill-rule="evenodd">
        <g id="项目级-" fill-rule="nonzero">
            <path d="M12,21 L41.0345652,21 L39.5345652,15 L15,15 C13.3431458,15 12,16.3431458 12,18 L12,21 Z M48.25,21 L89,21 C92.3137085,21 95,23.6862915 95,27 L95,86 C95,89.3137085 92.3137085,92 89,92 L11,92 C7.6862915,92 5,89.3137085 5,86 L5,18 C5,12.4771525 9.4771525,8 15,8 L41.8768944,8 C43.7123649,8 45.3122974,9.24918949 45.7574644,11.0298575 L48.25,21 Z M12,28 L12,85 L88,85 L88,28 L12,28 Z" id="形状" fill="#00678A"></path>
            <path d="M40.5,44 L73.5,44 C75.4329966,44 77,45.5670034 77,47.5 C77,49.4329966 75.4329966,51 73.5,51 L40.5,51 C38.5670034,51 37,49.4329966 37,47.5 C37,45.5670034 38.5670034,44 40.5,44 Z M26.5,44 L29.5,44 C31.4329966,44 33,45.5670034 33,47.5 C33,49.4329966 31.4329966,51 29.5,51 L26.5,51 C24.5670034,51 23,49.4329966 23,47.5 C23,45.5670034 24.5670034,44 26.5,44 Z M26.5,61 L29.5,61 C31.4329966,61 33,62.5670034 33,64.5 C33,66.4329966 31.4329966,68 29.5,68 L26.5,68 C24.5670034,68 23,66.4329966 23,64.5 C23,62.5670034 24.5670034,61 26.5,61 Z M40.5,61 L67.5,61 C69.4329966,61 71,62.5670034 71,64.5 C71,66.4329966 69.4329966,68 67.5,68 L40.5,68 C38.5670034,68 37,66.4329966 37,64.5 C37,62.5670034 38.5670034,61 40.5,61 Z" id="合并形状" fill="#FF5544"></path>
        </g>
        <g id="页面">
            <g></g>
        </g>
    </g>
</svg>