<?xml version="1.0" encoding="UTF-8"?>
<svg width="100px" height="100px" viewBox="0 0 100 100" version="1.1" xmlns="http://www.w3.org/2000/svg" xmlns:xlink="http://www.w3.org/1999/xlink">
    <!-- Generator: Sketch 52 (66869) - http://www.bohemiancoding.com/sketch -->
    <title>任务单级</title>
    <desc>Created with Sketch.</desc>
    <g id="组件" stroke="none" stroke-width="1" fill="none" fill-rule="evenodd">
        <g id="任务单级" fill-rule="nonzero">
            <path d="M71,19 L71,12 L81,12 C85.418278,12 89,15.581722 89,20 L89,90 C89,94.418278 85.418278,98 81,98 L19,98 C14.581722,98 11,94.418278 11,90 L11,20 C11,15.581722 14.581722,12 19,12 L29,12 L29,19 L19,19 C18.4477153,19 18,19.4477153 18,20 L18,90 C18,90.5522847 18.4477153,91 19,91 L81,91 C81.5522847,91 82,90.5522847 82,90 L82,20 C82,19.4477153 81.5522847,19 81,19 L71,19 Z M42.0618938,9 C42.5539918,5.05368842 45.9203823,2 50,2 C54.0796177,2 57.4460082,5.05368842 57.9381062,9 L63,9 C65.209139,9 67,10.790861 67,13 L67,19 C67,21.209139 65.209139,23 63,23 L37,23 C34.790861,23 33,21.209139 33,19 L33,13 C33,10.790861 34.790861,9 37,9 L42.0618938,9 Z M50,14 C52.209139,14 54,12.209139 54,10 C54,7.790861 52.209139,6 50,6 C47.790861,6 46,7.790861 46,10 C46,12.209139 47.790861,14 50,14 Z" id="形状" fill="#438EF7"></path>
            <path d="M30.5,53 L33.5,53 C35.4329966,53 37,54.5670034 37,56.5 C37,58.4329966 35.4329966,60 33.5,60 L30.5,60 C28.5670034,60 27,58.4329966 27,56.5 C27,54.5670034 28.5670034,53 30.5,53 Z M30.5,68 L33.5,68 C35.4329966,68 37,69.5670034 37,71.5 C37,73.4329966 35.4329966,75 33.5,75 L30.5,75 C28.5670034,75 27,73.4329966 27,71.5 C27,69.5670034 28.5670034,68 30.5,68 Z M46.5,53 L69.5,53 C71.4329966,53 73,54.5670034 73,56.5 C73,58.4329966 71.4329966,60 69.5,60 L46.5,60 C44.5670034,60 43,58.4329966 43,56.5 C43,54.5670034 44.5670034,53 46.5,53 Z M46.5,68 L69.5,68 C71.4329966,68 73,69.5670034 73,71.5 C73,73.4329966 71.4329966,75 69.5,75 L46.5,75 C44.5670034,75 43,73.4329966 43,71.5 C43,69.5670034 44.5670034,68 46.5,68 Z M42.405389,36.3569315 L33.5711692,45.3973082 C33.163436,45.7991027 32.6877472,46 32.1441029,46 C31.6684142,46 31.1927254,45.7991027 30.7849922,45.464274 L25.6203714,40.7097055 C24.8049049,39.9730822 24.8049049,38.7007328 25.5524158,37.8971438 C26.2999267,37.0935547 27.5910819,37.0935547 28.4065484,37.830178 L32.1441029,41.2454315 L39.619212,33.6113355 C40.3667229,32.8077465 41.6578781,32.8077465 42.4733446,33.5443698 C43.1529,34.2809931 43.2208555,35.5533424 42.405389,36.3569315 Z M46.5,38 L69.5,38 C71.4329966,38 73,39.5670034 73,41.5 C73,43.4329966 71.4329966,45 69.5,45 L46.5,45 C44.5670034,45 43,43.4329966 43,41.5 C43,39.5670034 44.5670034,38 46.5,38 Z" id="形状" fill="#F5A623"></path>
        </g>
        <g id="页面">
            <g></g>
        </g>
    </g>
</svg>