<?xml version="1.0" encoding="UTF-8"?>
<svg width="160px" height="160px" viewBox="0 0 160 160" version="1.1" xmlns="http://www.w3.org/2000/svg" xmlns:xlink="http://www.w3.org/1999/xlink">
    <!-- Generator: Sketch 58 (84663) - https://sketch.com -->
    <title>复合组件备份</title>
    <desc>Created with Sketch.</desc>
    <g id="复合组件备份" stroke="none" stroke-width="1" fill="none" fill-rule="evenodd">
        <g id="折线图" transform="translate(5.000000, 10.000000)" fill-rule="nonzero">
            <path d="M150,0 L150,140 L0,140 L0,0 L150,0 Z M140,10 L10,10 L10,130 L140,130 L140,10 Z M130,110 L130,120 L20,120 L20,110 L130,110 Z M130,95 L130,105 L20,105 L20,95 L130,95 Z" id="形状结合" fill="#18AEB7"></path>
            <g id="编组-23" transform="translate(44.000000, 15.000000)" fill="#F6C444">
                <path d="M18.7817459,25 L25.3718434,31.5900974 L12.1916485,44.7702923 C8.5520382,48.4099026 8.5520382,54.3108768 12.1916485,57.9504871 C15.8312588,61.5900974 21.732233,61.5900974 25.3718434,57.9504871 L38.5520382,44.7702923 L45.1421356,51.3603897 L31.9619408,64.5405845 C24.6827202,71.8198052 12.8807717,71.8198052 5.60155108,64.5405845 C-1.67766953,57.2613639 -1.67766953,45.4594155 5.60155108,38.1801948 L18.7817459,25 Z M45.7487373,17.3223305 L52.8198052,24.3933983 L24.5355339,52.6776695 L17.4644661,45.6066017 L45.7487373,17.3223305 Z M64.6827202,5.45941546 C71.9619408,12.7386361 71.9619408,24.5405845 64.6827202,31.8198052 L51.5025253,45 L44.9124279,38.4099026 L58.0926227,25.2297077 C61.732233,21.5900974 61.732233,15.6891232 58.0926227,12.0495129 C54.4530124,8.40990258 48.5520382,8.40990258 44.9124279,12.0495129 L31.732233,25.2297077 L25.1421356,18.6396103 L38.3223305,5.45941546 C45.6015511,-1.81980515 57.4034995,-1.81980515 64.6827202,5.45941546 Z" id="形状结合"></path>
            </g>
        </g>
    </g>
</svg>