<?xml version="1.0" encoding="UTF-8"?>
<svg width="160px" height="160px" viewBox="0 0 160 160" version="1.1" xmlns="http://www.w3.org/2000/svg" xmlns:xlink="http://www.w3.org/1999/xlink">
    <!-- Generator: Sketch 58 (84663) - https://sketch.com -->
    <title>表格备份 2</title>
    <desc>Created with Sketch.</desc>
    <g id="表格备份-2" stroke="none" stroke-width="1" fill="none" fill-rule="evenodd">
        <g id="分组-9" transform="translate(12.000000, 30.000000)">
            <g id="分组-7">
                <path d="M131,70 L131,85 L5,85 L5,70 L131,70 Z M131,40 L131,55 L5,55 L5,40 L131,40 Z" id="形状结合" fill="#F6C444"></path>
                <path d="M0,105 L0,1.59872116e-14 L136,1.59872116e-14 L136,105 L90,105 L85,105 L0,105 Z M40,25 L5,25 L5,100 L40,100 L40,25 Z M45,25 L45,100 L85,100 L85,25 L45,25 Z M90,100 L131,100 L131,25 L90,25 L90,100 Z" id="形状结合" fill="#18AEB7" fill-rule="nonzero"></path>
            </g>
        </g>
    </g>
</svg>