<?xml version="1.0" encoding="UTF-8"?>
<svg width="160px" height="160px" viewBox="0 0 160 160" version="1.1" xmlns="http://www.w3.org/2000/svg" xmlns:xlink="http://www.w3.org/1999/xlink">
    <!-- Generator: Sketch 64 (93537) - https://sketch.com -->
    <title>穿梭表格</title>
    <desc>Created with Sketch.</desc>
    <g id="穿梭表格" stroke="none" stroke-width="1" fill="none" fill-rule="evenodd">
        <g id="编组-26" transform="translate(5.000000, 15.000000)">
            <path d="M55,0 L55,130 L0,130 L0,0 L55,0 Z M150,0 L150,130 L95,130 L95,0 L150,0 Z M24,103 L9.999,103 L10,120 L24,119.999 L24,103 Z M119,103 L105,103 L105,120 L119,119.999 L119,103 Z M140,103 L125,103 L125,119.999 L140,120 L140,103 Z M44.999,103 L30,103 L30,119.999 L45,120 L44.999,103 Z M119,80 L105,80 L105,97 L119,97 L119,80 Z M140,80 L125,80 L125,97 L140,97 L140,80 Z M24,80 L9.999,80 L9.999,97 L24,97 L24,80 Z M44.999,80 L30,80 L30,97 L44.999,97 L44.999,80 Z M119,57 L105,57 L105,74 L119,74 L119,57 Z M140,57 L125,57 L125,74 L140,74 L140,57 Z M24,57 L9.999,57 L9.999,74 L24,74 L24,57 Z M44.999,57 L30,57 L30,74 L44.999,74 L44.999,57 Z M119,36 L105,36 L105,51 L119,51 L119,36 Z M140,36 L125,36 L125,51 L140,51 L140,36 Z M24,34 L9.999,34 L9.999,51 L24,51 L24,34 Z M44.999,34 L30,34 L30,51 L44.999,51 L44.999,34 Z M45,10 L10,10 L9.999,28 L44.999,28 L45,10 Z M140,10 L105,10 L105,26 L140,26 L140,10 Z" id="形状" fill="#18AEB7" fill-rule="nonzero"></path>
            <path d="M90,75 L90,105 L60,105 L60,75 L90,75 Z M71.6530209,78.6423893 L68.117487,82.1779232 L75.9395638,90 L68.117487,97.8220768 L71.6530209,101.357611 L83.0106316,90 L71.6530209,78.6423893 Z M90,25 L90,55 L60,55 L60,25 L90,25 Z M78.3469791,28.6423893 L66.9893684,40 L78.3469791,51.3576107 L81.882513,47.8220768 L74.0604362,40 L81.882513,32.1779232 L78.3469791,28.6423893 Z" id="形状结合" fill="#F6C444"></path>
        </g>
    </g>
</svg>