<?xml version="1.0" encoding="UTF-8"?>
<svg width="160px" height="160px" viewBox="0 0 160 160" version="1.1" xmlns="http://www.w3.org/2000/svg" xmlns:xlink="http://www.w3.org/1999/xlink">
    <!-- Generator: Sketch 64 (93537) - https://sketch.com -->
    <title>穿梭</title>
    <desc>Created with Sketch.</desc>
    <g id="穿梭" stroke="none" stroke-width="1" fill="none" fill-rule="evenodd">
        <g id="编组-26" transform="translate(5.000000, 15.000000)">
            <path d="M70,0 L70,130 L0,130 L0,0 L70,0 Z M150,0 L150,130 L80,130 L80,0 L150,0 Z M60,10 L10,10 L10,120 L60,120 L60,10 Z M140,10 L90,10 L90,120 L140,120 L140,10 Z" id="形状" fill="#18AEB7" fill-rule="nonzero"></path>
            <path d="M130,50 L130,80 L100,80 L100,50 L130,50 Z M50,50 L50,80 L20,80 L20,50 L50,50 Z M118.346979,53.6423893 L106.989368,65 L118.346979,76.3576107 L121.882513,72.8220768 L114.060436,65 L121.882513,57.1779232 L118.346979,53.6423893 Z M31.6530209,53.6423893 L28.117487,57.1779232 L35.9395638,65 L28.117487,72.8220768 L31.6530209,76.3576107 L43.0106316,65 L31.6530209,53.6423893 Z" id="形状" fill="#F6C444"></path>
        </g>
    </g>
</svg>