<?xml version="1.0" encoding="UTF-8"?>
<svg width="160px" height="160px" viewBox="0 0 160 160" version="1.1" xmlns="http://www.w3.org/2000/svg" xmlns:xlink="http://www.w3.org/1999/xlink">
    <!-- Generator: Sketch 58 (84663) - https://sketch.com -->
    <title>树备份</title>
    <desc>Created with Sketch.</desc>
    <g id="树备份" stroke="none" stroke-width="1" fill="none" fill-rule="evenodd">
        <g id="折线图" transform="translate(5.000000, 5.000000)">
            <path d="M150,110 L150,150 L110,150 L110,110 L150,110 Z M40,55 L40,95 L0,95 L0,55 L40,55 Z M150,55 L150,95 L110,95 L110,55 L150,55 Z M150,0 L150,40 L110,40 L110,0 L150,0 Z" id="形状结合" fill="#F6C444"></path>
            <path d="M105,15 L105,25 L75,25 L75,70 L105,70 L105,80 L75,80 L75,125 L105,125 L105,135 L65,135 L65,80 L45,80 L45,70 L65,70 L65,15 L105,15 Z" id="形状结合" fill="#18AEB7"></path>
        </g>
    </g>
</svg>