<?xml version="1.0" encoding="UTF-8"?>
<svg width="108px" height="108px" viewBox="0 0 108 108" version="1.1" xmlns="http://www.w3.org/2000/svg" xmlns:xlink="http://www.w3.org/1999/xlink">
    <!-- Generator: Sketch 64 (93537) - https://sketch.com -->
    <title>添加模型</title>
    <desc>Created with Sketch.</desc>
    <g id="添加模型" stroke="none" stroke-width="1" fill="none" fill-rule="evenodd">
        <path d="M81,54 C95.9116882,54 108,66.0883118 108,81 C108,95.9116882 95.9116882,108 81,108 C66.0883118,108 54,95.9116882 54,81 C54,66.0883118 66.0883118,54 81,54 Z M81,60 C69.4020203,60 60,69.4020203 60,81 C60,92.5979797 69.4020203,102 81,102 C92.5979797,102 102,92.5979797 102,81 C102,69.4020203 92.5979797,60 81,60 Z M97,0 C100.313708,-6.08718376e-16 103,2.6862915 103,6 L103,6 L103,48 L97,48 L97,6 L79,6 L79,18 L73,18 L73,6 L55,6 L55,18 L49,18 L49,6 L31,6 L31,18 L25,18 L25,6 L7,6 L7,96 L43,96 L43,102 L7,102 C3.6862915,102 1,99.3137085 1,96 L1,96 L1,6 C1,2.6862915 3.6862915,6.08718376e-16 7,0 L7,0 Z M81,66 C82.6568542,66 84,67.3431458 84,69 L84,78 L93,78 C94.6568542,78 96,79.3431458 96,81 C96,82.6568542 94.6568542,84 93,84 L84,84 L84,93 C84,94.6568542 82.6568542,96 81,96 C79.3431458,96 78,94.6568542 78,93 L78,84 L69,84 C67.3431458,84 66,82.6568542 66,81 C66,79.3431458 67.3431458,78 69,78 L78,78 L78,69 C78,67.3431458 79.3431458,66 81,66 Z M40,66 C41.6568542,66 43,67.3431458 43,69 C43,70.6568542 41.6568542,72 40,72 L40,72 L22,72 C20.3431458,72 19,70.6568542 19,69 C19,67.3431458 20.3431458,66 22,66 L22,66 Z M52,48 C53.6568542,48 55,49.3431458 55,51 C55,52.6568542 53.6568542,54 52,54 L52,54 L22,54 C20.3431458,54 19,52.6568542 19,51 C19,49.3431458 20.3431458,48 22,48 L22,48 Z M82,30 C83.6568542,30 85,31.3431458 85,33 C85,34.6568542 83.6568542,36 82,36 L22,36 C20.3431458,36 19,34.6568542 19,33 C19,31.3431458 20.3431458,30 22,30 L82,30 Z" id="形状结合" fill="#FFFFFF" fill-rule="nonzero"></path>
    </g>
</svg>