<?xml version="1.0" encoding="UTF-8"?>
<svg width="160px" height="160px" viewBox="0 0 160 160" version="1.1" xmlns="http://www.w3.org/2000/svg" xmlns:xlink="http://www.w3.org/1999/xlink">
    <!-- Generator: Sketch 64 (93537) - https://sketch.com -->
    <title>组件模板</title>
    <desc>Created with Sketch.</desc>
    <g id="组件模板" stroke="none" stroke-width="1" fill="none" fill-rule="evenodd">
        <path d="M155,10 L155,100 L105,100 L105,10 L155,10 Z M95,60 L95,100 L5,100 L5,60 L95,60 Z M145,20 L115,20 L115,90 L145,90 L145,20 Z M85,70 L15,70 L15,90 L85,90 L85,70 Z" id="形状结合" fill="#F6C444" fill-rule="nonzero"></path>
        <path d="M155,110 L155,150 L5,150 L5,110 L155,110 Z M145,120 L15,120 L15,140 L145,140 L145,120 Z M95,10 L95,50 L5,50 L5,10 L95,10 Z M85,20 L15,20 L15,40 L85,40 L85,20 Z" id="形状结合" fill="#18AEB7" fill-rule="nonzero"></path>
    </g>
</svg>