<?xml version="1.0" encoding="UTF-8"?>
<svg width="160px" height="160px" viewBox="0 0 160 160" version="1.1" xmlns="http://www.w3.org/2000/svg" xmlns:xlink="http://www.w3.org/1999/xlink">
    <!-- Generator: Sketch 64 (93537) - https://sketch.com -->
    <title>模型组件</title>
    <desc>Created with Sketch.</desc>
    <g id="模型组件" stroke="none" stroke-width="1" fill="none" fill-rule="evenodd">
        <path d="M155,5 L155,155 L5,155 L5,5 L155,5 Z M137.928,15 L22.071,15 L33.5355339,26.4644661 C35.4881554,28.4170876 35.4881554,31.5829124 33.5355339,33.5355339 C31.6420828,35.428985 28.6078417,35.4863623 26.6452518,33.7076658 L26.4644661,33.5355339 L15,22.071 L15,137.928 L26.4644661,126.464466 L26.6452518,126.292334 C28.6078417,124.513638 31.6420828,124.571015 33.5355339,126.464466 C35.4881554,128.417088 35.4881554,131.582912 33.5355339,133.535534 L33.5355339,133.535534 L22.07,145 L137.929,145 L126.464466,133.535534 C124.511845,131.582912 124.511845,128.417088 126.464466,126.464466 C128.357917,124.571015 131.392158,124.513638 133.354748,126.292334 L133.535534,126.464466 L145,137.929 L145,22.07 L133.535534,33.5355339 L133.354748,33.7076658 C131.392158,35.4863623 128.357917,35.428985 126.464466,33.5355339 C124.511845,31.5829124 124.511845,28.4170876 126.464466,26.4644661 L126.464466,26.4644661 L137.928,15 Z" id="形状结合" fill="#18AEB7" fill-rule="nonzero"></path>
        <path d="M80.5189883,30.2717287 L124.487292,54.8072553 C124.803833,54.9838944 125,55.3180031 125,55.6804946 L125,105.517326 C125,105.887067 124.795984,106.226634 124.469534,106.40024 L80.5610394,129.750813 C80.2680132,129.906645 79.9167647,129.906944 79.6234737,129.751611 L35.5319687,106.399879 C35.2046848,106.226543 35,105.886519 35,105.516168 L35,55.680902 C35,55.3181936 35.1963992,54.9839205 35.5132375,54.8073676 L79.5449341,30.2714336 C79.8477261,30.1027078 80.2162986,30.1028194 80.5189883,30.2717287 Z M114.819,60.8629679 L85,77.9249679 L85,116.062968 L115,100.11 L115,60.964 L114.819,60.8629679 Z M45.187,60.8639679 L45,60.968 L45,100.098 L75,115.985968 L75,77.8769679 L45.187,60.8639679 Z M80.028,41.449 L55.395,55.1749679 L80.043,69.241 L104.626,55.1749679 L80.028,41.449 Z" id="形状结合" fill="#F6C444" fill-rule="nonzero"></path>
    </g>
</svg>