<?xml version="1.0" encoding="UTF-8"?>
<svg width="120px" height="120px" viewBox="0 0 120 120" version="1.1" xmlns="http://www.w3.org/2000/svg" xmlns:xlink="http://www.w3.org/1999/xlink">
    <!-- Generator: Sketch 64 (93537) - https://sketch.com -->
    <title>页面资源</title>
    <desc>Created with Sketch.</desc>
    <g id="页面资源" stroke="none" stroke-width="1" fill="none" fill-rule="evenodd">
        <path d="M112,120 L16,120 L16,114 L106,114 L106,8 L112,8 L112,120 Z M100,0 L100,108 L8,108 L8,0 L100,0 Z M87,80 L35,80 L35,88 L87,88 L87,80 Z M29,80 L21,80 L21,88 L29,88 L29,80 Z M87,60 L35,60 L35,68 L87,68 L87,60 Z M29,60 L21,60 L21,68 L29,68 L29,60 Z M87,40 L35,40 L35,48 L87,48 L87,40 Z M29,40 L21,40 L21,48 L29,48 L29,40 Z M87,20 L35,20 L35,28 L87,28 L87,20 Z M29,20 L21,20 L21,28 L29,28 L29,20 Z" id="形状" fill="#FFFFFF"></path>
    </g>
</svg>