<?xml version="1.0" encoding="UTF-8"?>
<svg width="80px" height="80px" viewBox="0 0 80 80" version="1.1" xmlns="http://www.w3.org/2000/svg" xmlns:xlink="http://www.w3.org/1999/xlink">
    <!-- Generator: Sketch 64 (93537) - https://sketch.com -->
    <title>搜索备份 2</title>
    <desc>Created with Sketch.</desc>
    <g id="搜索备份-2" stroke="none" stroke-width="1" fill="none" fill-rule="evenodd">
        <g id="搜索备份" fill="#B7B7B7" fill-rule="nonzero">
            <path d="M28.900191,0 C44.8613258,0 57.8003821,12.9374476 57.8003821,28.896598 C57.8003821,35.9060981 55.3043098,42.3326818 51.1524203,47.3361983 L58.901,55.084 L64.4022019,55.0841399 L79.6643236,70.2568677 C80.0559932,70.6462432 80.057853,71.2794055 79.6684774,71.6710752 C79.6667763,71.6727863 79.665069,71.6744913 79.6633555,71.6761901 L71.5998399,79.6706353 C71.2100231,80.057113 70.5815392,80.057113 70.1917223,79.6706353 L55.0909892,64.6992519 L55.1986439,58.3247548 L55.478,58.047 L48.0070009,50.5773365 C43.0245365,54.9705839 36.5158368,57.6736117 29.3781085,57.7893247 L28.900191,57.793196 C12.9390563,57.793196 0,44.8557484 0,28.896598 C0,12.9374476 12.9390563,0 28.900191,0 Z M28.900191,5.41811213 C15.931769,5.41811213 5.41878582,15.9297883 5.41878582,28.896598 C5.41878582,41.8634077 15.931769,52.3750839 28.900191,52.3750839 C41.868613,52.3750839 52.3815962,41.8634077 52.3815962,28.896598 C52.3815962,15.9297883 41.868613,5.41811213 28.900191,5.41811213 Z" id="形状结合"></path>
        </g>
    </g>
</svg>