<?xml version="1.0" encoding="UTF-8"?>
<svg width="160px" height="160px" viewBox="0 0 160 160" version="1.1" xmlns="http://www.w3.org/2000/svg" xmlns:xlink="http://www.w3.org/1999/xlink">
    <!-- Generator: Sketch 58 (84663) - https://sketch.com -->
    <title>玉块图备份</title>
    <desc>Created with Sketch.</desc>
    <g id="玉块图备份" stroke="none" stroke-width="1" fill="none" fill-rule="evenodd">
        <g id="折线图" transform="translate(5.000000, 5.000000)" fill-rule="nonzero">
            <path d="M75,0 C116.421356,0 150,33.5786438 150,75 C150,116.421356 116.421356,150 75,150 C33.5786438,150 0,116.421356 0,75 C0,72.2385763 2.23857625,70 5,70 C7.76142375,70 10,72.2385763 10,75 C10,110.898509 39.1014913,140 75,140 C110.898509,140 140,110.898509 140,75 C140,39.1014913 110.898509,10 75,10 C72.2385763,10 70,7.76142375 70,5 C70,2.23857625 72.2385763,0 75,0 Z M75,40 C94.3299662,40 110,55.6700338 110,75 C110,94.3299662 94.3299662,110 75,110 C72.2385763,110 70,107.761424 70,105 C70,102.238576 72.2385763,100 75,100 C88.8071187,100 100,88.8071187 100,75 C100,61.1928813 88.8071187,50 75,50 C72.2385763,50 70,47.7614237 70,45 C70,42.2385763 72.2385763,40 75,40 Z" id="形状结合" fill="#18AEB7"></path>
            <path d="M30.9178169,106.883813 C41.0945803,121.27276 57.5263713,130 75.4066921,130 C105.566926,130 130,105.366561 130,75 C130,44.6334386 105.566926,20 75.4066921,20 C72.6452684,20 70.4066921,22.2385763 70.4066921,25 C70.4066921,27.7614237 72.6452684,30 75.4066921,30 C100.025714,30 120,50.1380864 120,75 C120,99.8619136 100.025714,120 75.4066921,120 C60.8127786,120 47.4069943,112.87993 39.0821831,101.109462 C37.4876403,98.8549346 34.3673522,98.3199113 32.1128247,99.9144542 C29.8582973,101.508997 29.323274,104.629285 30.9178169,106.883813 Z" id="路径" fill="#F6C444"></path>
        </g>
    </g>
</svg>