<?xml version="1.0" encoding="UTF-8"?>
<svg width="160px" height="160px" viewBox="0 0 160 160" version="1.1" xmlns="http://www.w3.org/2000/svg" xmlns:xlink="http://www.w3.org/1999/xlink">
    <!-- Generator: Sketch 58 (84663) - https://sketch.com -->
    <title>仪表盘备份 2</title>
    <desc>Created with Sketch.</desc>
    <g id="仪表盘备份-2" stroke="none" stroke-width="1" fill="none" fill-rule="evenodd">
        <g id="仪表盘" transform="translate(10.000000, 15.000000)">
            <path d="M70,0 C108.659932,0 140,31.5815841 140,70.5394423 C140,88.3341713 133.461283,104.589932 122.672954,116.99998 L108.48775,102.704446 C115.677291,93.9782457 120,82.7675457 120,70.5394423 C120,42.7124007 97.6142375,20.1541264 70,20.1541264 C42.3857625,20.1541264 20,42.7124007 20,70.5394423 C20,82.7675457 24.3227092,93.9782457 31.5122501,102.704446 L17.3270465,116.99998 C6.53871691,104.589932 0,88.3341713 0,70.5394423 C0,31.5815841 31.3400675,0 70,0 Z" id="Combined-Shape" fill="#18AEB7"></path>
            <path d="M70,55 C72.7614237,55 75,57.2385763 75,60 L75.0000877,100.85356 C80.8260038,102.912766 85,108.468939 85,115 C85,123.284271 78.2842712,130 70,130 C61.7157288,130 55,123.284271 55,115 C55,108.469312 59.1735193,102.913401 64.9989136,100.853913 L65,60 C65,57.2385763 67.2385763,55 70,55 Z" id="Combined-Shape" fill="#F6C444"></path>
        </g>
    </g>
</svg>