<?xml version="1.0" encoding="UTF-8"?>
<svg width="38px" height="38px" viewBox="0 0 38 38" version="1.1" xmlns="http://www.w3.org/2000/svg" xmlns:xlink="http://www.w3.org/1999/xlink">
    <!-- Generator: Sketch 52 (66869) - http://www.bohemiancoding.com/sketch -->
    <title>导航栏logo</title>
    <desc>Created with Sketch.</desc>
    <defs>
        <linearGradient x1="34.5084789%" y1="0%" x2="61.7101651%" y2="100%" id="linearGradient-1">
            <stop stop-color="#CDB602" offset="0%"></stop>
            <stop stop-color="#BC7500" offset="100%"></stop>
        </linearGradient>
        <linearGradient x1="34.5084789%" y1="0%" x2="61.7101651%" y2="100%" id="linearGradient-2">
            <stop stop-color="#FFF51F" offset="0%"></stop>
            <stop stop-color="#FF9F00" offset="100%"></stop>
        </linearGradient>
    </defs>
    <g id="logo图标" stroke="none" stroke-width="1" fill="none" fill-rule="evenodd">
        <g id="工作台-3-copy-4" transform="translate(-40.000000, -10.000000)" fill-rule="nonzero">
            <g id="导航栏logo" transform="translate(40.000000, 10.000000)">
                <path d="M5.4966634,32.3958696 C5.51375889,32.4090887 5.53073087,32.4219797 5.54757932,32.4345425 L11.0205031,21.0890052 L14.1958889,21.0890052 L11.7403333,26.1623037 L11.7,26.1623037 L9.8,30.1413613 L9.8141969,30.1417961 L14.414407,30.1413613 L29.3,30.1413613 L27.4,26.1623037 L16.3369282,26.1623037 L22.5907332,13.2187536 L20.3018404,8.4738093 L16.1218148,17.1099476 L12.9399431,17.1099476 L18.7038661,5.16115999 L16.4140677,0.414338208 L2.70439126,28.7982134 C2.70243859,28.8039205 2.70113714,28.8103204 2.70048692,28.8174133 C0.985912542,25.9777702 0,22.6531566 0,19.0994764 C0,9.35050479 7.41992187,1.32547536 16.9485004,0.307845743 L24.4768109,15.9142625 L29.0672261,15.9166443 L21.557425,0.368702053 C30.841431,1.61122028 38,9.52373857 38,19.0994764 C38,29.5379474 29.4934102,38 19,38 C13.7184618,38 8.94024595,35.8563037 5.4966634,32.3958696 Z" id="合并形状" fill="#FFFFFF"></path>
                <path d="M33.187297,31.6716619 C33.0466338,31.8286267 32.9033777,31.9832421 32.7575954,32.1354415 L27.7,21.6858639 L21.7,21.6858639 L21.4,21.0890052 L28,21.0890052 L33.187297,31.6716619 Z" id="合并形状" fill="url(#linearGradient-1)"></path>
                <path d="M35.8621478,27.8181063 C35.1215105,29.2326752 34.2062705,30.542354 33.1448527,31.7188666 L28,21.0890052 L21.4,21.0890052 L23.3,17.1099476 L30.6933492,17.1168667 L35.8621478,27.8181063 Z" id="合并形状" fill="url(#linearGradient-2)"></path>
            </g>
        </g>
    </g>
</svg>