<?xml version="1.0" encoding="UTF-8"?>
<svg width="180px" height="180px" viewBox="0 0 180 180" version="1.1" xmlns="http://www.w3.org/2000/svg" xmlns:xlink="http://www.w3.org/1999/xlink">
    <!-- Generator: Sketch 52 (66869) - http://www.bohemiancoding.com/sketch -->
    <title>位置</title>
    <desc>Created with Sketch.</desc>
    <g id="位置" stroke="none" stroke-width="1" fill="none" fill-rule="evenodd">
        <path d="M128.582333,14 C104.636907,14 85,33.8143345 85,58.0784983 C85,76.7174061 96.9312852,97.5392491 106.874023,111.728328 C114.828213,123.062799 122.699547,131.878498 126.676642,136.244369 C127.173779,136.748123 127.836628,137 128.499477,137 C129.162326,137 129.825176,136.748123 130.322312,136.244369 C134.299408,131.962457 142.253598,122.97884 150.124932,111.728328 C160.067669,97.5392491 171.998954,76.7174061 171.998954,58.0784983 C172.164667,33.8143345 152.610616,14 128.582333,14 Z M128.960998,83 C115.154446,83 104,71.75 104,58 C104,44.25 115.232449,33 128.960998,33 C142.767551,33 154,44.25 154,58 C154,71.75 142.845554,83 128.960998,83 Z M86.7684211,124 L21,116.75 L30.3836257,84.25 C30.9649123,82.3333333 32.625731,81 34.6187135,81 L83.5298246,81 C85.7719298,87.25 88.7614035,93.5 92,99.1666667 L86.7684211,124 Z M77.8456089,167 L12.392828,167 C10.9789814,167 9.73146973,166.327273 8.89979526,165.234091 C8.06812079,164.140909 7.735451,162.627273 8.23445568,161.281818 L17.1333725,130 L84,137.4 C84,137.484091 77.8456089,167 77.8456089,167 Z M158.033613,112 L164,133 L144,130.780488 C147.529412,126.512195 151.563025,121.304878 155.596639,115.585366 C156.352941,114.304878 157.277311,113.109756 158.033613,112 Z M167.706422,146.88024 L171.752294,161.047904 C171.917431,161.550898 172,161.97006 172,162.556886 C172,165.071856 170.018349,167 167.623853,167 L91,167 L96.7798165,139 L167.706422,146.88024 Z" id="形状" fill="#F5A623" fill-rule="nonzero"></path>
    </g>
</svg>